<svg width="103" height="24" viewBox="0 0 103 24" fill="none" xmlns="http://www.w3.org/2000/svg">
<path d="M1.19512 15.3415V16.0732H0.463415V15.3415H1.19512ZM1.19512 14.6098V15.3415H0.463415V14.6098H1.19512ZM1.19512 13.878V14.6098H0.463415V13.878H1.19512ZM1.19512 13.1463V13.878H0.463415V13.1463H1.19512ZM1.19512 12.4146V13.1463H0.463415V12.4146H1.19512ZM1.19512 11.6829V12.4146H0.463415V11.6829H1.19512ZM1.19512 10.9512V11.6829H0.463415V10.9512H1.19512ZM1.19512 10.2195V10.9512H0.463415V10.2195H1.19512ZM1.19512 9.48781V10.2195H0.463415V9.48781H1.19512ZM1.19512 8.7561V9.48781H0.463415V8.7561H1.19512ZM1.19512 8.02439V8.7561H0.463415V8.02439H1.19512ZM1.92683 8.02439V8.7561H1.19512V8.02439H1.92683ZM1.92683 8.7561V9.48781H1.19512V8.7561H1.92683ZM1.92683 9.48781V10.2195H1.19512V9.48781H1.92683ZM1.92683 10.2195V10.9512H1.19512V10.2195H1.92683ZM1.92683 10.9512V11.6829H1.19512V10.9512H1.92683ZM1.92683 11.6829V12.4146H1.19512V11.6829H1.92683ZM1.92683 12.4146V13.1463H1.19512V12.4146H1.92683ZM2.65854 13.1463V13.878H1.92683V13.1463H2.65854ZM2.65854 13.878V14.6098H1.92683V13.878H2.65854ZM2.65854 14.6098V15.3415H1.92683V14.6098H2.65854ZM2.65854 15.3415V16.0732H1.92683V15.3415H2.65854ZM2.65854 16.0732V16.8049H1.92683V16.0732H2.65854ZM2.65854 16.8049V17.5366H1.92683V16.8049H2.65854ZM2.65854 17.5366V18.2683H1.92683V17.5366H2.65854ZM4.12195 18.2683V19H3.39024V18.2683H4.12195ZM4.12195 17.5366V18.2683H3.39024V17.5366H4.12195ZM4.12195 16.8049V17.5366H3.39024V16.8049H4.12195ZM4.12195 16.0732V16.8049H3.39024V16.0732H4.12195ZM4.12195 15.3415V16.0732H3.39024V15.3415H4.12195ZM4.12195 14.6098V15.3415H3.39024V14.6098H4.12195ZM4.12195 13.878V14.6098H3.39024V13.878H4.12195ZM4.12195 13.1463V13.878H3.39024V13.1463H4.12195ZM3.39024 13.1463V13.878H2.65854V13.1463H3.39024ZM3.39024 12.4146V13.1463H2.65854V12.4146H3.39024ZM3.39024 13.878V14.6098H2.65854V13.878H3.39024ZM3.39024 14.6098V15.3415H2.65854V14.6098H3.39024ZM3.39024 15.3415V16.0732H2.65854V15.3415H3.39024ZM3.39024 16.0732V16.8049H2.65854V16.0732H3.39024ZM3.39024 16.8049V17.5366H2.65854V16.8049H3.39024ZM3.39024 17.5366V18.2683H2.65854V17.5366H3.39024ZM1.92683 16.8049V17.5366H1.19512V16.8049H1.92683ZM1.92683 16.0732V16.8049H1.19512V16.0732H1.92683ZM1.92683 15.3415V16.0732H1.19512V15.3415H1.92683ZM1.92683 14.6098V15.3415H1.19512V14.6098H1.92683ZM1.92683 13.878V14.6098H1.19512V13.878H1.92683ZM1.92683 13.1463V13.878H1.19512V13.1463H1.92683ZM1.19512 7.29268V8.02439H0.463415V7.29268H1.19512ZM3.39024 7.29268V8.02439H2.65854V7.29268H3.39024ZM3.39024 8.02439V8.7561H2.65854V8.02439H3.39024ZM3.39024 8.7561V9.48781H2.65854V8.7561H3.39024ZM3.39024 9.48781V10.2195H2.65854V9.48781H3.39024ZM3.39024 10.2195V10.9512H2.65854V10.2195H3.39024ZM4.12195 10.9512V11.6829H3.39024V10.9512H4.12195ZM4.12195 11.6829V12.4146H3.39024V11.6829H4.12195ZM4.12195 12.4146V13.1463H3.39024V12.4146H4.12195ZM4.12195 10.2195V10.9512H3.39024V10.2195H4.12195ZM4.12195 9.48781V10.2195H3.39024V9.48781H4.12195ZM4.12195 8.7561V9.48781H3.39024V8.7561H4.12195ZM4.12195 8.02439V8.7561H3.39024V8.02439H4.12195ZM4.12195 7.29268V8.02439H3.39024V7.29268H4.12195ZM1.92683 7.29268V8.02439H1.19512V7.29268H1.92683ZM2.65854 7.29268V8.02439H1.92683V7.29268H2.65854ZM2.65854 8.02439V8.7561H1.92683V8.02439H2.65854ZM2.65854 8.7561V9.48781H1.92683V8.7561H2.65854ZM2.65854 9.48781V10.2195H1.92683V9.48781H2.65854ZM2.65854 10.2195V10.9512H1.92683V10.2195H2.65854ZM2.65854 10.9512V11.6829H1.92683V10.9512H2.65854ZM2.65854 11.6829V12.4146H1.92683V11.6829H2.65854ZM2.65854 12.4146V13.1463H1.92683V12.4146H2.65854ZM3.39024 11.6829V12.4146H2.65854V11.6829H3.39024ZM3.39024 10.9512V11.6829H2.65854V10.9512H3.39024ZM9.97561 18.2683V19H9.2439V18.2683H9.97561ZM9.97561 17.5366V18.2683H9.2439V17.5366H9.97561ZM9.97561 16.8049V17.5366H9.2439V16.8049H9.97561ZM9.97561 16.0732V16.8049H9.2439V16.0732H9.97561ZM9.97561 15.3415V16.0732H9.2439V15.3415H9.97561ZM9.97561 14.6098V15.3415H9.2439V14.6098H9.97561ZM9.97561 13.878V14.6098H9.2439V13.878H9.97561ZM11.439 13.878V14.6098H10.7073V13.878H11.439ZM11.439 14.6098V15.3415H10.7073V14.6098H11.439ZM11.439 15.3415V16.0732H10.7073V15.3415H11.439ZM11.439 16.0732V16.8049H10.7073V16.0732H11.439ZM11.439 16.8049V17.5366H10.7073V16.8049H11.439ZM11.439 17.5366V18.2683H10.7073V17.5366H11.439ZM12.9024 15.3415V16.0732H12.1707V15.3415H12.9024ZM12.9024 14.6098V15.3415H12.1707V14.6098H12.9024ZM12.9024 13.878V14.6098H12.1707V13.878H12.9024ZM12.1707 13.878V14.6098H11.439V13.878H12.1707ZM12.1707 14.6098V15.3415H11.439V14.6098H12.1707ZM12.1707 15.3415V16.0732H11.439V15.3415H12.1707ZM12.1707 16.0732V16.8049H11.439V16.0732H12.1707ZM12.1707 16.8049V17.5366H11.439V16.8049H12.1707ZM10.7073 17.5366V18.2683H9.97561V17.5366H10.7073ZM10.7073 16.8049V17.5366H9.97561V16.8049H10.7073ZM10.7073 16.0732V16.8049H9.97561V16.0732H10.7073ZM10.7073 15.3415V16.0732H9.97561V15.3415H10.7073ZM10.7073 14.6098V15.3415H9.97561V14.6098H10.7073ZM10.7073 13.878V14.6098H9.97561V13.878H10.7073ZM4.85366 18.2683V19H4.12195V18.2683H4.85366ZM5.58537 18.2683V19H4.85366V18.2683H5.58537ZM6.31707 18.2683V19H5.58537V18.2683H6.31707ZM7.04878 18.2683V19H6.31707V18.2683H7.04878ZM7.78049 18.2683V19H7.04878V18.2683H7.78049ZM9.2439 18.2683V19H8.51219V18.2683H9.2439ZM9.2439 17.5366V18.2683H8.51219V17.5366H9.2439ZM7.78049 17.5366V18.2683H7.04878V17.5366H7.78049ZM7.04878 17.5366V18.2683H6.31707V17.5366H7.04878ZM6.31707 17.5366V18.2683H5.58537V17.5366H6.31707ZM5.58537 17.5366V18.2683H4.85366V17.5366H5.58537ZM4.85366 17.5366V18.2683H4.12195V17.5366H4.85366ZM4.85366 16.8049V17.5366H4.12195V16.8049H4.85366ZM5.58537 16.8049V17.5366H4.85366V16.8049H5.58537ZM6.31707 16.8049V17.5366H5.58537V16.8049H6.31707ZM7.04878 16.8049V17.5366H6.31707V16.8049H7.04878ZM7.78049 16.8049V17.5366H7.04878V16.8049H7.78049ZM9.2439 16.8049V17.5366H8.51219V16.8049H9.2439ZM9.2439 16.0732V16.8049H8.51219V16.0732H9.2439ZM7.78049 16.0732V16.8049H7.04878V16.0732H7.78049ZM7.04878 16.0732V16.8049H6.31707V16.0732H7.04878ZM6.31707 16.0732V16.8049H5.58537V16.0732H6.31707ZM5.58537 16.0732V16.8049H4.85366V16.0732H5.58537ZM4.85366 16.0732V16.8049H4.12195V16.0732H4.85366ZM4.85366 15.3415V16.0732H4.12195V15.3415H4.85366ZM9.2439 15.3415V16.0732H8.51219V15.3415H9.2439ZM12.1707 4.36585V3.63415H12.9024V4.36585H12.1707ZM12.1707 5.09756V4.36585H12.9024V5.09756H12.1707ZM12.1707 5.82927V5.09756H12.9024V5.82927H12.1707ZM10.7073 5.82927V5.09756H11.439V5.82927H10.7073ZM10.7073 5.09756V4.36585H11.439V5.09756H10.7073ZM10.7073 4.36585V3.63415H11.439V4.36585H10.7073ZM10.7073 3.63415V2.90244H11.439V3.63415H10.7073ZM10.7073 2.90244V2.17073H11.439V2.90244H10.7073ZM10.7073 2.17073V1.43903H11.439V2.17073H10.7073ZM9.2439 1.43903V0.707317H9.97561V1.43903H9.2439ZM9.2439 2.17073V1.43903H9.97561V2.17073H9.2439ZM9.2439 2.90244V2.17073H9.97561V2.90244H9.2439ZM9.2439 3.63415V2.90244H9.97561V3.63415H9.2439ZM9.2439 4.36585V3.63415H9.97561V4.36585H9.2439ZM9.2439 5.09756V4.36585H9.97561V5.09756H9.2439ZM9.2439 5.82927V5.09756H9.97561V5.82927H9.2439ZM9.97561 5.82927V5.09756H10.7073V5.82927H9.97561ZM9.97561 5.09756V4.36585H10.7073V5.09756H9.97561ZM9.97561 4.36585V3.63415H10.7073V4.36585H9.97561ZM9.97561 3.63415V2.90244H10.7073V3.63415H9.97561ZM9.97561 2.90244V2.17073H10.7073V2.90244H9.97561ZM9.97561 2.17073V1.43903H10.7073V2.17073H9.97561ZM11.439 2.90244V2.17073H12.1707V2.90244H11.439ZM11.439 3.63415V2.90244H12.1707V3.63415H11.439ZM11.439 4.36585V3.63415H12.1707V4.36585H11.439ZM11.439 5.09756V4.36585H12.1707V5.09756H11.439ZM11.439 5.82927V5.09756H12.1707V5.82927H11.439ZM3.39024 1.43903V0.707317H4.12195V1.43903H3.39024ZM3.39024 2.17073V1.43903H4.12195V2.17073H3.39024ZM3.39024 2.90244V2.17073H4.12195V2.90244H3.39024ZM3.39024 3.63415V2.90244H4.12195V3.63415H3.39024ZM3.39024 4.36585V3.63415H4.12195V4.36585H3.39024ZM3.39024 5.09756V4.36585H4.12195V5.09756H3.39024ZM3.39024 5.82927V5.09756H4.12195V5.82927H3.39024ZM1.92683 5.82927V5.09756H2.65854V5.82927H1.92683ZM1.92683 5.09756V4.36585H2.65854V5.09756H1.92683ZM1.92683 4.36585V3.63415H2.65854V4.36585H1.92683ZM1.92683 3.63415V2.90244H2.65854V3.63415H1.92683ZM1.92683 2.90244V2.17073H2.65854V2.90244H1.92683ZM1.92683 2.17073V1.43903H2.65854V2.17073H1.92683ZM0.463415 4.36585V3.63415H1.19512V4.36585H0.463415ZM0.463415 5.09756V4.36585H1.19512V5.09756H0.463415ZM0.463415 5.82927V5.09756H1.19512V5.82927H0.463415ZM1.19512 5.82927V5.09756H1.92683V5.82927H1.19512ZM1.19512 5.09756V4.36585H1.92683V5.09756H1.19512ZM1.19512 4.36585V3.63415H1.92683V4.36585H1.19512ZM1.19512 3.63415V2.90244H1.92683V3.63415H1.19512ZM1.19512 2.90244V2.17073H1.92683V2.90244H1.19512ZM2.65854 2.17073V1.43903H3.39024V2.17073H2.65854ZM2.65854 2.90244V2.17073H3.39024V2.90244H2.65854ZM2.65854 3.63415V2.90244H3.39024V3.63415H2.65854ZM2.65854 4.36585V3.63415H3.39024V4.36585H2.65854ZM2.65854 5.09756V4.36585H3.39024V5.09756H2.65854ZM2.65854 5.82927V5.09756H3.39024V5.82927H2.65854ZM8.51219 1.43903V0.707317H9.2439V1.43903H8.51219ZM7.04878 1.43903V0.707317H7.78049V1.43903H7.04878ZM6.31707 1.43903V0.707317H7.04878V1.43903H6.31707ZM5.58537 1.43903V0.707317H6.31707V1.43903H5.58537ZM4.85366 1.43903V0.707317H5.58537V1.43903H4.85366ZM4.12195 1.43903V0.707317H4.85366V1.43903H4.12195ZM4.12195 2.17073V1.43903H4.85366V2.17073H4.12195ZM4.85366 2.17073V1.43903H5.58537V2.17073H4.85366ZM5.58537 2.17073V1.43903H6.31707V2.17073H5.58537ZM6.31707 2.17073V1.43903H7.04878V2.17073H6.31707ZM7.04878 2.17073V1.43903H7.78049V2.17073H7.04878ZM8.51219 2.17073V1.43903H9.2439V2.17073H8.51219ZM8.51219 2.90244V2.17073H9.2439V2.90244H8.51219ZM7.04878 2.90244V2.17073H7.78049V2.90244H7.04878ZM6.31707 2.90244V2.17073H7.04878V2.90244H6.31707ZM5.58537 2.90244V2.17073H6.31707V2.90244H5.58537ZM4.85366 2.90244V2.17073H5.58537V2.90244H4.85366ZM4.12195 2.90244V2.17073H4.85366V2.90244H4.12195ZM4.12195 3.63415V2.90244H4.85366V3.63415H4.12195ZM4.85366 3.63415V2.90244H5.58537V3.63415H4.85366ZM5.58537 3.63415V2.90244H6.31707V3.63415H5.58537ZM6.31707 3.63415V2.90244H7.04878V3.63415H6.31707ZM7.04878 3.63415V2.90244H7.78049V3.63415H7.04878ZM8.51219 3.63415V2.90244H9.2439V3.63415H8.51219ZM8.51219 4.36585V3.63415H9.2439V4.36585H8.51219ZM4.12195 4.36585V3.63415H4.85366V4.36585H4.12195ZM1.19512 6.56098V7.29268H0.463415V6.56098H1.19512ZM1.92683 6.56098V7.29268H1.19512V6.56098H1.92683ZM1.19512 5.82927V6.56098H0.463415V5.82927H1.19512ZM3.39024 5.82927V6.56098H2.65854V5.82927H3.39024ZM3.39024 6.56098V7.29268H2.65854V6.56098H3.39024ZM4.12195 6.56098V7.29268H3.39024V6.56098H4.12195ZM4.12195 5.82927V6.56098H3.39024V5.82927H4.12195ZM1.92683 5.82927V6.56098H1.19512V5.82927H1.92683ZM2.65854 5.82927V6.56098H1.92683V5.82927H2.65854ZM2.65854 6.56098V7.29268H1.92683V6.56098H2.65854ZM5.58537 15.3415V16.0732H4.85366V15.3415H5.58537ZM6.31707 15.3415V16.0732H5.58537V15.3415H6.31707ZM7.04878 15.3415V16.0732H6.31707V15.3415H7.04878ZM7.78049 15.3415V16.0732H7.04878V15.3415H7.78049ZM9.2439 14.6098V15.3415H8.51219V14.6098H9.2439ZM4.85366 14.6098V15.3415H4.12195V14.6098H4.85366ZM9.97561 13.1463V13.878H9.2439V13.1463H9.97561ZM10.7073 13.1463V13.878H9.97561V13.1463H10.7073ZM11.439 13.1463V13.878H10.7073V13.1463H11.439ZM12.1707 13.1463V13.878H11.439V13.1463H12.1707ZM12.9024 13.1463V13.878H12.1707V13.1463H12.9024ZM4.85366 4.36585V5.09756H4.12195V4.36585H4.85366ZM5.58537 3.63415V4.36585H4.85366V3.63415H5.58537ZM6.31707 3.63415V4.36585H5.58537V3.63415H6.31707ZM7.04878 3.63415V4.36585H6.31707V3.63415H7.04878ZM7.78049 3.63415V4.36585H7.04878V3.63415H7.78049ZM9.2439 4.36585V5.09756H8.51219V4.36585H9.2439ZM9.97561 5.82927V6.56098H9.2439V5.82927H9.97561ZM10.7073 5.82927V6.56098H9.97561V5.82927H10.7073ZM11.439 5.82927V6.56098H10.7073V5.82927H11.439ZM12.1707 5.82927V6.56098H11.439V5.82927H12.1707ZM12.9024 5.82927V6.56098H12.1707V5.82927H12.9024ZM8.51219 0.707317V1.43903H7.78049V0.707317H8.51219ZM8.51219 1.43903V2.17073H7.78049V1.43903H8.51219ZM8.51219 2.17073V2.90244H7.78049V2.17073H8.51219ZM8.51219 2.90244V3.63415H7.78049V2.90244H8.51219ZM8.51219 3.63415V4.36585H7.78049V3.63415H8.51219ZM8.51219 15.3415V16.0732H7.78049V15.3415H8.51219ZM8.51219 16.0732V16.8049H7.78049V16.0732H8.51219ZM8.51219 16.8049V17.5366H7.78049V16.8049H8.51219ZM8.51219 17.5366V18.2683H7.78049V17.5366H8.51219ZM8.51219 18.2683V19H7.78049V18.2683H8.51219ZM16.5467 18.2683V19H15.815V18.2683H16.5467ZM16.5467 17.5366V18.2683H15.815V17.5366H16.5467ZM16.5467 16.8049V17.5366H15.815V16.8049H16.5467ZM16.5467 16.0732V16.8049H15.815V16.0732H16.5467ZM16.5467 15.3415V16.0732H15.815V15.3415H16.5467ZM16.5467 14.6098V15.3415H15.815V14.6098H16.5467ZM16.5467 13.878V14.6098H15.815V13.878H16.5467ZM16.5467 13.1463V13.878H15.815V13.1463H16.5467ZM16.5467 12.4146V13.1463H15.815V12.4146H16.5467ZM16.5467 11.6829V12.4146H15.815V11.6829H16.5467ZM16.5467 10.9512V11.6829H15.815V10.9512H16.5467ZM16.5467 10.2195V10.9512H15.815V10.2195H16.5467ZM16.5467 9.48781V10.2195H15.815V9.48781H16.5467ZM16.5467 8.7561V9.48781H15.815V8.7561H16.5467ZM16.5467 8.02439V8.7561H15.815V8.02439H16.5467ZM17.2784 8.02439V8.7561H16.5467V8.02439H17.2784ZM17.2784 8.7561V9.48781H16.5467V8.7561H17.2784ZM17.2784 9.48781V10.2195H16.5467V9.48781H17.2784ZM17.2784 10.2195V10.9512H16.5467V10.2195H17.2784ZM17.2784 10.9512V11.6829H16.5467V10.9512H17.2784ZM17.2784 11.6829V12.4146H16.5467V11.6829H17.2784ZM17.2784 12.4146V13.1463H16.5467V12.4146H17.2784ZM18.0101 13.1463V13.878H17.2784V13.1463H18.0101ZM18.0101 13.878V14.6098H17.2784V13.878H18.0101ZM18.0101 14.6098V15.3415H17.2784V14.6098H18.0101ZM18.0101 15.3415V16.0732H17.2784V15.3415H18.0101ZM18.0101 16.0732V16.8049H17.2784V16.0732H18.0101ZM18.0101 16.8049V17.5366H17.2784V16.8049H18.0101ZM18.0101 17.5366V18.2683H17.2784V17.5366H18.0101ZM18.0101 18.2683V19H17.2784V18.2683H18.0101ZM18.7418 18.2683V19H18.0101V18.2683H18.7418ZM19.4735 18.2683V19H18.7418V18.2683H19.4735ZM19.4735 17.5366V18.2683H18.7418V17.5366H19.4735ZM19.4735 16.8049V17.5366H18.7418V16.8049H19.4735ZM19.4735 16.0732V16.8049H18.7418V16.0732H19.4735ZM19.4735 15.3415V16.0732H18.7418V15.3415H19.4735ZM19.4735 14.6098V15.3415H18.7418V14.6098H19.4735ZM19.4735 13.878V14.6098H18.7418V13.878H19.4735ZM19.4735 13.1463V13.878H18.7418V13.1463H19.4735ZM18.7418 13.1463V13.878H18.0101V13.1463H18.7418ZM18.7418 12.4146V13.1463H18.0101V12.4146H18.7418ZM18.7418 13.878V14.6098H18.0101V13.878H18.7418ZM18.7418 14.6098V15.3415H18.0101V14.6098H18.7418ZM18.7418 15.3415V16.0732H18.0101V15.3415H18.7418ZM18.7418 16.0732V16.8049H18.0101V16.0732H18.7418ZM18.7418 16.8049V17.5366H18.0101V16.8049H18.7418ZM18.7418 17.5366V18.2683H18.0101V17.5366H18.7418ZM17.2784 18.2683V19H16.5467V18.2683H17.2784ZM17.2784 17.5366V18.2683H16.5467V17.5366H17.2784ZM17.2784 16.8049V17.5366H16.5467V16.8049H17.2784ZM17.2784 16.0732V16.8049H16.5467V16.0732H17.2784ZM17.2784 15.3415V16.0732H16.5467V15.3415H17.2784ZM17.2784 14.6098V15.3415H16.5467V14.6098H17.2784ZM17.2784 13.878V14.6098H16.5467V13.878H17.2784ZM17.2784 13.1463V13.878H16.5467V13.1463H17.2784ZM16.5467 5.09756V5.82927H15.815V5.09756H16.5467ZM16.5467 5.82927V6.56098H15.815V5.82927H16.5467ZM16.5467 6.56098V7.29268H15.815V6.56098H16.5467ZM16.5467 7.29268V8.02439H15.815V7.29268H16.5467ZM18.7418 5.82927V6.56098H18.0101V5.82927H18.7418ZM18.7418 6.56098V7.29268H18.0101V6.56098H18.7418ZM18.7418 7.29268V8.02439H18.0101V7.29268H18.7418ZM18.7418 8.02439V8.7561H18.0101V8.02439H18.7418ZM18.7418 8.7561V9.48781H18.0101V8.7561H18.7418ZM18.7418 9.48781V10.2195H18.0101V9.48781H18.7418ZM18.7418 10.2195V10.9512H18.0101V10.2195H18.7418ZM19.4735 10.9512V11.6829H18.7418V10.9512H19.4735ZM19.4735 11.6829V12.4146H18.7418V11.6829H19.4735ZM19.4735 12.4146V13.1463H18.7418V12.4146H19.4735ZM19.4735 10.2195V10.9512H18.7418V10.2195H19.4735ZM19.4735 9.48781V10.2195H18.7418V9.48781H19.4735ZM19.4735 8.7561V9.48781H18.7418V8.7561H19.4735ZM19.4735 8.02439V8.7561H18.7418V8.02439H19.4735ZM19.4735 7.29268V8.02439H18.7418V7.29268H19.4735ZM19.4735 6.56098V7.29268H18.7418V6.56098H19.4735ZM19.4735 5.82927V6.56098H18.7418V5.82927H19.4735ZM19.4735 5.09756V5.82927H18.7418V5.09756H19.4735ZM18.7418 5.09756V5.82927H18.0101V5.09756H18.7418ZM18.0101 5.09756V5.82927H17.2784V5.09756H18.0101ZM18.0101 5.82927V6.56098H17.2784V5.82927H18.0101ZM17.2784 6.56098V7.29268H16.5467V6.56098H17.2784ZM17.2784 7.29268V8.02439H16.5467V7.29268H17.2784ZM17.2784 5.82927V6.56098H16.5467V5.82927H17.2784ZM17.2784 5.09756V5.82927H16.5467V5.09756H17.2784ZM18.0101 6.56098V7.29268H17.2784V6.56098H18.0101ZM18.0101 7.29268V8.02439H17.2784V7.29268H18.0101ZM18.0101 8.02439V8.7561H17.2784V8.02439H18.0101ZM18.0101 8.7561V9.48781H17.2784V8.7561H18.0101ZM18.0101 9.48781V10.2195H17.2784V9.48781H18.0101ZM18.0101 10.2195V10.9512H17.2784V10.2195H18.0101ZM18.0101 10.9512V11.6829H17.2784V10.9512H18.0101ZM18.0101 11.6829V12.4146H17.2784V11.6829H18.0101ZM18.0101 12.4146V13.1463H17.2784V12.4146H18.0101ZM18.7418 11.6829V12.4146H18.0101V11.6829H18.7418ZM18.7418 10.9512V11.6829H18.0101V10.9512H18.7418ZM24.5955 8.02439V8.7561H23.8638V8.02439H24.5955ZM24.5955 5.09756V5.82927H23.8638V5.09756H24.5955ZM24.5955 5.82927V6.56098H23.8638V5.82927H24.5955ZM25.3272 5.82927V6.56098H24.5955V5.82927H25.3272ZM26.0589 6.56098V7.29268H25.3272V6.56098H26.0589ZM25.3272 7.29268V8.02439H24.5955V7.29268H25.3272ZM25.3272 6.56098V7.29268H24.5955V6.56098H25.3272ZM24.5955 6.56098V7.29268H23.8638V6.56098H24.5955ZM23.8638 6.56098V7.29268H23.132V6.56098H23.8638ZM23.8638 7.29268V8.02439H23.132V7.29268H23.8638ZM24.5955 7.29268V8.02439H23.8638V7.29268H24.5955ZM23.8638 8.02439V8.7561H23.132V8.02439H23.8638ZM23.132 7.29268V8.02439H22.4003V7.29268H23.132ZM23.132 6.56098V7.29268H22.4003V6.56098H23.132ZM23.132 5.82927V6.56098H22.4003V5.82927H23.132ZM23.132 5.09756V5.82927H22.4003V5.09756H23.132ZM23.8638 5.09756V5.82927H23.132V5.09756H23.8638ZM23.8638 5.82927V6.56098H23.132V5.82927H23.8638ZM22.4003 5.09756V5.82927H21.6686V5.09756H22.4003ZM22.4003 5.82927V6.56098H21.6686V5.82927H22.4003ZM22.4003 6.56098V7.29268H21.6686V6.56098H22.4003ZM22.4003 7.29268V8.02439H21.6686V7.29268H22.4003ZM21.6686 5.09756V5.82927H20.9369V5.09756H21.6686ZM21.6686 5.82927V6.56098H20.9369V5.82927H21.6686ZM20.9369 5.82927V6.56098H20.2052V5.82927H20.9369ZM20.9369 6.56098V7.29268H20.2052V6.56098H20.9369ZM20.2052 6.56098V7.29268H19.4735V6.56098H20.2052ZM20.2052 7.29268V8.02439H19.4735V7.29268H20.2052ZM20.9369 7.29268V8.02439H20.2052V7.29268H20.9369ZM21.6686 7.29268V8.02439H20.9369V7.29268H21.6686ZM21.6686 6.56098V7.29268H20.9369V6.56098H21.6686ZM20.2052 8.02439V8.7561H19.4735V8.02439H20.2052ZM20.9369 5.09756V5.82927H20.2052V5.09756H20.9369ZM20.2052 5.82927V6.56098H19.4735V5.82927H20.2052ZM23.132 8.02439V8.7561H22.4003V8.02439H23.132ZM23.8638 8.7561V9.48781H23.132V8.7561H23.8638ZM28.2654 5.09756V5.82927H27.5337V5.09756H28.2654ZM28.9971 5.09756V5.82927H28.2654V5.09756H28.9971ZM29.7288 5.09756V5.82927H28.9971V5.09756H29.7288ZM30.4606 5.09756V5.82927H29.7288V5.09756H30.4606ZM30.4606 5.82927V6.56098H29.7288V5.82927H30.4606ZM31.1923 5.82927V6.56098H30.4606V5.82927H31.1923ZM31.1923 6.56098V7.29268H30.4606V6.56098H31.1923ZM31.1923 5.09756V5.82927H30.4606V5.09756H31.1923ZM31.1923 7.29268V8.02439H30.4606V7.29268H31.1923ZM31.1923 8.02439V8.7561H30.4606V8.02439H31.1923ZM31.1923 8.7561V9.48781H30.4606V8.7561H31.1923ZM31.1923 9.48781V10.2195H30.4606V9.48781H31.1923ZM31.1923 10.2195V10.9512H30.4606V10.2195H31.1923ZM31.1923 10.9512V11.6829H30.4606V10.9512H31.1923ZM31.1923 11.6829V12.4146H30.4606V11.6829H31.1923ZM31.1923 12.4146V13.1463H30.4606V12.4146H31.1923ZM31.1923 13.1463V13.878H30.4606V13.1463H31.1923ZM30.4606 13.1463V13.878H29.7288V13.1463H30.4606ZM29.7288 13.878V14.6098H28.9971V13.878H29.7288ZM28.9971 13.878V14.6098H28.2654V13.878H28.9971ZM28.2654 13.878V14.6098H27.5337V13.878H28.2654ZM28.2654 13.1463V13.878H27.5337V13.1463H28.2654ZM28.2654 12.4146V13.1463H27.5337V12.4146H28.2654ZM28.2654 11.6829V12.4146H27.5337V11.6829H28.2654ZM28.2654 10.9512V11.6829H27.5337V10.9512H28.2654ZM28.9971 10.9512V11.6829H28.2654V10.9512H28.9971ZM28.9971 10.2195V10.9512H28.2654V10.2195H28.9971ZM28.9971 9.48781V10.2195H28.2654V9.48781H28.9971ZM28.9971 8.7561V9.48781H28.2654V8.7561H28.9971ZM28.9971 8.02439V8.7561H28.2654V8.02439H28.9971ZM28.9971 7.29268V8.02439H28.2654V7.29268H28.9971ZM28.9971 6.56098V7.29268H28.2654V6.56098H28.9971ZM28.9971 5.82927V6.56098H28.2654V5.82927H28.9971ZM28.2654 5.82927V6.56098H27.5337V5.82927H28.2654ZM28.2654 6.56098V7.29268H27.5337V6.56098H28.2654ZM28.2654 7.29268V8.02439H27.5337V7.29268H28.2654ZM28.2654 8.02439V8.7561H27.5337V8.02439H28.2654ZM28.2654 8.7561V9.48781H27.5337V8.7561H28.2654ZM28.2654 9.48781V10.2195H27.5337V9.48781H28.2654ZM28.2654 10.2195V10.9512H27.5337V10.2195H28.2654ZM29.7288 8.7561V9.48781H28.9971V8.7561H29.7288ZM29.7288 8.02439V8.7561H28.9971V8.02439H29.7288ZM29.7288 7.29268V8.02439H28.9971V7.29268H29.7288ZM29.7288 6.56098V7.29268H28.9971V6.56098H29.7288ZM29.7288 5.82927V6.56098H28.9971V5.82927H29.7288ZM30.4606 8.7561V9.48781H29.7288V8.7561H30.4606ZM30.4606 9.48781V10.2195H29.7288V9.48781H30.4606ZM30.4606 8.02439V8.7561H29.7288V8.02439H30.4606ZM30.4606 7.29268V8.02439H29.7288V7.29268H30.4606ZM30.4606 6.56098V7.29268H29.7288V6.56098H30.4606ZM29.7288 10.9512V11.6829H28.9971V10.9512H29.7288ZM29.7288 10.2195V10.9512H28.9971V10.2195H29.7288ZM29.7288 9.48781V10.2195H28.9971V9.48781H29.7288ZM30.4606 10.2195V10.9512H29.7288V10.2195H30.4606ZM30.4606 10.9512V11.6829H29.7288V10.9512H30.4606ZM30.4606 11.6829V12.4146H29.7288V11.6829H30.4606ZM29.7288 12.4146V13.1463H28.9971V12.4146H29.7288ZM29.7288 13.1463V13.878H28.9971V13.1463H29.7288ZM29.7288 11.6829V12.4146H28.9971V11.6829H29.7288ZM28.9971 11.6829V12.4146H28.2654V11.6829H28.9971ZM28.9971 12.4146V13.1463H28.2654V12.4146H28.9971ZM28.9971 13.1463V13.878H28.2654V13.1463H28.9971ZM30.4606 12.4146V13.1463H29.7288V12.4146H30.4606ZM29.7288 14.6098V15.3415H28.9971V14.6098H29.7288ZM28.9971 14.6098V15.3415H28.2654V14.6098H28.9971ZM30.4606 14.6098V15.3415H29.7288V14.6098H30.4606ZM30.4606 13.878V14.6098H29.7288V13.878H30.4606ZM31.1923 13.878V14.6098H30.4606V13.878H31.1923ZM31.924 13.878V14.6098H31.1923V13.878H31.924ZM31.924 14.6098V15.3415H31.1923V14.6098H31.924ZM31.1923 14.6098V15.3415H30.4606V14.6098H31.1923ZM32.6557 14.6098V15.3415H31.924V14.6098H32.6557ZM29.7288 15.3415V16.0732H28.9971V15.3415H29.7288ZM30.4606 15.3415V16.0732H29.7288V15.3415H30.4606ZM31.1923 15.3415V16.0732H30.4606V15.3415H31.1923ZM31.924 15.3415V16.0732H31.1923V15.3415H31.924ZM32.6557 15.3415V16.0732H31.924V15.3415H32.6557ZM33.3874 15.3415V16.0732H32.6557V15.3415H33.3874ZM34.1191 15.3415V16.0732H33.3874V15.3415H34.1191ZM34.8508 15.3415V16.0732H34.1191V15.3415H34.8508ZM35.5825 15.3415V16.0732H34.8508V15.3415H35.5825ZM36.3142 15.3415V16.0732H35.5825V15.3415H36.3142ZM37.0459 15.3415V16.0732H36.3142V15.3415H37.0459ZM37.7776 15.3415V16.0732H37.0459V15.3415H37.7776ZM37.0459 14.6098V15.3415H36.3142V14.6098H37.0459ZM36.3142 14.6098V15.3415H35.5825V14.6098H36.3142ZM35.5825 14.6098V15.3415H34.8508V14.6098H35.5825ZM34.8508 14.6098V15.3415H34.1191V14.6098H34.8508ZM35.5825 13.878V14.6098H34.8508V13.878H35.5825ZM36.3142 13.878V14.6098H35.5825V13.878H36.3142ZM37.0459 13.878V14.6098H36.3142V13.878H37.0459ZM37.7776 13.878V14.6098H37.0459V13.878H37.7776ZM38.5093 13.878V14.6098H37.7776V13.878H38.5093ZM38.5093 14.6098V15.3415H37.7776V14.6098H38.5093ZM37.7776 14.6098V15.3415H37.0459V14.6098H37.7776ZM39.241 13.878V14.6098H38.5093V13.878H39.241ZM32.6557 18.2683V19H31.924V18.2683H32.6557ZM32.6557 17.5366V18.2683H31.924V17.5366H32.6557ZM32.6557 16.8049V17.5366H31.924V16.8049H32.6557ZM33.3874 16.8049V17.5366H32.6557V16.8049H33.3874ZM33.3874 16.0732V16.8049H32.6557V16.0732H33.3874ZM34.1191 16.0732V16.8049H33.3874V16.0732H34.1191ZM34.8508 16.0732V16.8049H34.1191V16.0732H34.8508ZM34.8508 16.8049V17.5366H34.1191V16.8049H34.8508ZM34.8508 17.5366V18.2683H34.1191V17.5366H34.8508ZM34.8508 18.2683V19H34.1191V18.2683H34.8508ZM34.1191 18.2683V19H33.3874V18.2683H34.1191ZM33.3874 18.2683V19H32.6557V18.2683H33.3874ZM33.3874 17.5366V18.2683H32.6557V17.5366H33.3874ZM34.1191 16.8049V17.5366H33.3874V16.8049H34.1191ZM34.1191 17.5366V18.2683H33.3874V17.5366H34.1191ZM35.5825 16.8049V17.5366H34.8508V16.8049H35.5825ZM35.5825 16.0732V16.8049H34.8508V16.0732H35.5825ZM36.3142 16.0732V16.8049H35.5825V16.0732H36.3142ZM37.0459 16.0732V16.8049H36.3142V16.0732H37.0459ZM36.3142 16.8049V17.5366H35.5825V16.8049H36.3142ZM35.5825 17.5366V18.2683H34.8508V17.5366H35.5825ZM30.4606 16.0732V16.8049H29.7288V16.0732H30.4606ZM31.1923 16.0732V16.8049H30.4606V16.0732H31.1923ZM31.1923 16.8049V17.5366H30.4606V16.8049H31.1923ZM31.924 16.8049V17.5366H31.1923V16.8049H31.924ZM31.924 17.5366V18.2683H31.1923V17.5366H31.924ZM32.6557 16.0732V16.8049H31.924V16.0732H32.6557ZM31.924 16.0732V16.8049H31.1923V16.0732H31.924ZM36.3142 13.1463V13.878H35.5825V13.1463H36.3142ZM36.3142 12.4146V13.1463H35.5825V12.4146H36.3142ZM36.3142 11.6829V12.4146H35.5825V11.6829H36.3142ZM36.3142 10.9512V11.6829H35.5825V10.9512H36.3142ZM37.0459 10.9512V11.6829H36.3142V10.9512H37.0459ZM37.7776 10.9512V11.6829H37.0459V10.9512H37.7776ZM38.5093 10.9512V11.6829H37.7776V10.9512H38.5093ZM39.241 10.9512V11.6829H38.5093V10.9512H39.241ZM39.241 11.6829V12.4146H38.5093V11.6829H39.241ZM39.241 12.4146V13.1463H38.5093V12.4146H39.241ZM39.241 13.1463V13.878H38.5093V13.1463H39.241ZM38.5093 13.1463V13.878H37.7776V13.1463H38.5093ZM37.7776 13.1463V13.878H37.0459V13.1463H37.7776ZM37.0459 13.1463V13.878H36.3142V13.1463H37.0459ZM37.7776 12.4146V13.1463H37.0459V12.4146H37.7776ZM38.5093 12.4146V13.1463H37.7776V12.4146H38.5093ZM38.5093 11.6829V12.4146H37.7776V11.6829H38.5093ZM37.7776 11.6829V12.4146H37.0459V11.6829H37.7776ZM37.0459 11.6829V12.4146H36.3142V11.6829H37.0459ZM37.0459 12.4146V13.1463H36.3142V12.4146H37.0459ZM36.3142 10.2195V10.9512H35.5825V10.2195H36.3142ZM36.3142 9.48781V10.2195H35.5825V9.48781H36.3142ZM36.3142 8.7561V9.48781H35.5825V8.7561H36.3142ZM36.3142 8.02439V8.7561H35.5825V8.02439H36.3142ZM36.3142 7.29268V8.02439H35.5825V7.29268H36.3142ZM36.3142 6.56098V7.29268H35.5825V6.56098H36.3142ZM36.3142 5.82927V6.56098H35.5825V5.82927H36.3142ZM36.3142 5.09756V5.82927H35.5825V5.09756H36.3142ZM37.0459 5.82927V6.56098H36.3142V5.82927H37.0459ZM37.0459 5.09756V5.82927H36.3142V5.09756H37.0459ZM37.7776 5.09756V5.82927H37.0459V5.09756H37.7776ZM38.5093 5.09756V5.82927H37.7776V5.09756H38.5093ZM38.5093 5.82927V6.56098H37.7776V5.82927H38.5093ZM38.5093 6.56098V7.29268H37.7776V6.56098H38.5093ZM39.241 6.56098V7.29268H38.5093V6.56098H39.241ZM39.241 7.29268V8.02439H38.5093V7.29268H39.241ZM39.241 8.02439V8.7561H38.5093V8.02439H39.241ZM39.241 8.7561V9.48781H38.5093V8.7561H39.241ZM39.241 9.48781V10.2195H38.5093V9.48781H39.241ZM39.241 10.2195V10.9512H38.5093V10.2195H39.241ZM39.241 5.82927V6.56098H38.5093V5.82927H39.241ZM39.241 5.09756V5.82927H38.5093V5.09756H39.241ZM37.7776 5.82927V6.56098H37.0459V5.82927H37.7776ZM37.7776 6.56098V7.29268H37.0459V6.56098H37.7776ZM37.7776 7.29268V8.02439H37.0459V7.29268H37.7776ZM37.7776 8.02439V8.7561H37.0459V8.02439H37.7776ZM37.7776 8.7561V9.48781H37.0459V8.7561H37.7776ZM37.7776 9.48781V10.2195H37.0459V9.48781H37.7776ZM37.0459 9.48781V10.2195H36.3142V9.48781H37.0459ZM37.0459 10.2195V10.9512H36.3142V10.2195H37.0459ZM37.0459 8.7561V9.48781H36.3142V8.7561H37.0459ZM37.0459 8.02439V8.7561H36.3142V8.02439H37.0459ZM37.0459 7.29268V8.02439H36.3142V7.29268H37.0459ZM37.0459 6.56098V7.29268H36.3142V6.56098H37.0459ZM38.5093 7.29268V8.02439H37.7776V7.29268H38.5093ZM38.5093 8.02439V8.7561H37.7776V8.02439H38.5093ZM38.5093 8.7561V9.48781H37.7776V8.7561H38.5093ZM38.5093 9.48781V10.2195H37.7776V9.48781H38.5093ZM38.5093 10.2195V10.9512H37.7776V10.2195H38.5093ZM37.7776 10.2195V10.9512H37.0459V10.2195H37.7776ZM31.1923 18.2683V19H30.4606V18.2683H31.1923ZM31.924 18.2683V19H31.1923V18.2683H31.924ZM32.6557 19V19.7317H31.924V19H32.6557ZM33.3874 19V19.7317H32.6557V19H33.3874ZM34.1191 19V19.7317H33.3874V19H34.1191ZM31.924 19V19.7317H31.1923V19H31.924ZM31.1923 19V19.7317H30.4606V19H31.1923ZM30.4606 19V19.7317H29.7288V19H30.4606ZM30.4606 19.7317V20.4634H29.7288V19.7317H30.4606ZM29.7288 19.7317V20.4634H28.9971V19.7317H29.7288ZM29.7288 20.4634V21.1951H28.9971V20.4634H29.7288ZM28.9971 20.4634V21.1951H28.2654V20.4634H28.9971ZM28.9971 21.1951V21.9268H28.2654V21.1951H28.9971ZM28.9971 21.9268V22.6585H28.2654V21.9268H28.9971ZM28.9971 22.6585V23.3902H28.2654V22.6585H28.9971ZM29.7288 22.6585V23.3902H28.9971V22.6585H29.7288ZM30.4606 22.6585V23.3902H29.7288V22.6585H30.4606ZM30.4606 21.9268V22.6585H29.7288V21.9268H30.4606ZM30.4606 21.1951V21.9268H29.7288V21.1951H30.4606ZM29.7288 21.1951V21.9268H28.9971V21.1951H29.7288ZM29.7288 21.9268V22.6585H28.9971V21.9268H29.7288ZM31.1923 21.1951V21.9268H30.4606V21.1951H31.1923ZM31.1923 21.9268V22.6585H30.4606V21.9268H31.1923ZM31.924 21.1951V21.9268H31.1923V21.1951H31.924ZM31.924 20.4634V21.1951H31.1923V20.4634H31.924ZM32.6557 20.4634V21.1951H31.924V20.4634H32.6557ZM32.6557 19.7317V20.4634H31.924V19.7317H32.6557ZM33.3874 19.7317V20.4634H32.6557V19.7317H33.3874ZM31.924 19.7317V20.4634H31.1923V19.7317H31.924ZM31.1923 19.7317V20.4634H30.4606V19.7317H31.1923ZM31.1923 20.4634V21.1951H30.4606V20.4634H31.1923ZM30.4606 20.4634V21.1951H29.7288V20.4634H30.4606ZM45.8407 7.29268H46.5724V8.02439H45.8407V7.29268ZM45.8407 6.56098H46.5724V7.29268H45.8407V6.56098ZM45.8407 5.82927H46.5724V6.56098H45.8407V5.82927ZM46.5724 5.82927H47.3041V6.56098H46.5724V5.82927ZM46.5724 6.56098H47.3041V7.29268H46.5724V6.56098ZM47.3041 6.56098H48.0358V7.29268H47.3041V6.56098ZM47.3041 7.29268H48.0358V8.02439H47.3041V7.29268ZM46.5724 7.29268H47.3041V8.02439H46.5724V7.29268ZM48.0358 7.29268H48.7675V8.02439H48.0358V7.29268ZM48.0358 6.56098H48.7675V7.29268H48.0358V6.56098ZM48.0358 5.82927H48.7675V6.56098H48.0358V5.82927ZM48.0358 5.09756H48.7675V5.82927H48.0358V5.09756ZM47.3041 5.09756H48.0358V5.82927H47.3041V5.09756ZM47.3041 5.82927H48.0358V6.56098H47.3041V5.82927ZM48.7675 5.09756H49.4992V5.82927H48.7675V5.09756ZM49.4992 5.09756H50.2309V5.82927H49.4992V5.09756ZM50.2309 5.09756H50.9627V5.82927H50.2309V5.09756ZM50.2309 5.82927H50.9627V6.56098H50.2309V5.82927ZM50.2309 6.56098H50.9627V7.29268H50.2309V6.56098ZM50.2309 7.29268H50.9627V8.02439H50.2309V7.29268ZM49.4992 7.29268H50.2309V8.02439H49.4992V7.29268ZM48.7675 7.29268H49.4992V8.02439H48.7675V7.29268ZM48.7675 6.56098H49.4992V7.29268H48.7675V6.56098ZM48.7675 5.82927H49.4992V6.56098H48.7675V5.82927ZM49.4992 5.82927H50.2309V6.56098H49.4992V5.82927ZM49.4992 6.56098H50.2309V7.29268H49.4992V6.56098ZM50.9627 6.56098H51.6944V7.29268H50.9627V6.56098ZM50.9627 5.82927H51.6944V6.56098H50.9627V5.82927ZM51.6944 5.82927H52.4261V6.56098H51.6944V5.82927ZM51.6944 6.56098H52.4261V7.29268H51.6944V6.56098ZM52.4261 6.56098H53.1578V7.29268H52.4261V6.56098ZM52.4261 7.29268H53.1578V8.02439H52.4261V7.29268ZM52.4261 8.02439H53.1578V8.7561H52.4261V8.02439ZM51.6944 8.02439H52.4261V8.7561H51.6944V8.02439ZM51.6944 7.29268H52.4261V8.02439H51.6944V7.29268ZM50.9627 7.29268H51.6944V8.02439H50.9627V7.29268ZM50.9627 8.02439H51.6944V8.7561H50.9627V8.02439ZM50.2309 8.02439H50.9627V8.7561H50.2309V8.02439ZM49.4992 8.02439H50.2309V8.7561H49.4992V8.02439ZM53.1578 8.02439H53.8895V8.7561H53.1578V8.02439ZM53.1578 8.7561H53.8895V9.48781H53.1578V8.7561ZM53.1578 9.48781H53.8895V10.2195H53.1578V9.48781ZM53.1578 10.2195H53.8895V10.9512H53.1578V10.2195ZM53.1578 10.9512H53.8895V11.6829H53.1578V10.9512ZM53.1578 11.6829H53.8895V12.4146H53.1578V11.6829ZM53.1578 12.4146H53.8895V13.1463H53.1578V12.4146ZM53.1578 13.1463H53.8895V13.878H53.1578V13.1463ZM53.1578 13.878H53.8895V14.6098H53.1578V13.878ZM53.1578 14.6098H53.8895V15.3415H53.1578V14.6098ZM52.4261 14.6098H53.1578V15.3415H52.4261V14.6098ZM52.4261 15.3415H53.1578V16.0732H52.4261V15.3415ZM53.1578 15.3415H53.8895V16.0732H53.1578V15.3415ZM51.6944 15.3415H52.4261V16.0732H51.6944V15.3415ZM50.9627 15.3415H51.6944V16.0732H50.9627V15.3415ZM50.2309 15.3415H50.9627V16.0732H50.2309V15.3415ZM49.4992 15.3415H50.2309V16.0732H49.4992V15.3415ZM50.2309 14.6098H50.9627V15.3415H50.2309V14.6098ZM50.2309 13.878H50.9627V14.6098H50.2309V13.878ZM50.2309 13.1463H50.9627V13.878H50.2309V13.1463ZM50.2309 12.4146H50.9627V13.1463H50.2309V12.4146ZM50.2309 11.6829H50.9627V12.4146H50.2309V11.6829ZM50.2309 10.9512H50.9627V11.6829H50.2309V10.9512ZM50.2309 10.2195H50.9627V10.9512H50.2309V10.2195ZM50.2309 9.48781H50.9627V10.2195H50.2309V9.48781ZM50.2309 8.7561H50.9627V9.48781H50.2309V8.7561ZM50.9627 8.7561H51.6944V9.48781H50.9627V8.7561ZM51.6944 8.7561H52.4261V9.48781H51.6944V8.7561ZM52.4261 8.7561H53.1578V9.48781H52.4261V8.7561ZM52.4261 9.48781H53.1578V10.2195H52.4261V9.48781ZM52.4261 10.2195H53.1578V10.9512H52.4261V10.2195ZM52.4261 10.9512H53.1578V11.6829H52.4261V10.9512ZM52.4261 11.6829H53.1578V12.4146H52.4261V11.6829ZM52.4261 12.4146H53.1578V13.1463H52.4261V12.4146ZM52.4261 13.1463H53.1578V13.878H52.4261V13.1463ZM52.4261 13.878H53.1578V14.6098H52.4261V13.878ZM51.6944 14.6098H52.4261V15.3415H51.6944V14.6098ZM50.9627 14.6098H51.6944V15.3415H50.9627V14.6098ZM50.9627 13.878H51.6944V14.6098H50.9627V13.878ZM50.9627 13.1463H51.6944V13.878H50.9627V13.1463ZM50.9627 12.4146H51.6944V13.1463H50.9627V12.4146ZM50.9627 11.6829H51.6944V12.4146H50.9627V11.6829ZM51.6944 11.6829H52.4261V12.4146H51.6944V11.6829ZM51.6944 10.9512H52.4261V11.6829H51.6944V10.9512ZM51.6944 10.2195H52.4261V10.9512H51.6944V10.2195ZM51.6944 9.48781H52.4261V10.2195H51.6944V9.48781ZM50.9627 9.48781H51.6944V10.2195H50.9627V9.48781ZM50.9627 10.2195H51.6944V10.9512H50.9627V10.2195ZM50.9627 10.9512H51.6944V11.6829H50.9627V10.9512ZM51.6944 13.1463H52.4261V13.878H51.6944V13.1463ZM51.6944 13.878H52.4261V14.6098H51.6944V13.878ZM51.6944 12.4146H52.4261V13.1463H51.6944V12.4146ZM45.8407 16.0732H46.5724V16.8049H45.8407V16.0732ZM46.5724 18.2683H47.3041V19H46.5724V18.2683ZM47.3041 18.2683H48.0358V19H47.3041V18.2683ZM48.0358 18.2683H48.7675V19H48.0358V18.2683ZM48.7675 18.2683H49.4992V19H48.7675V18.2683ZM49.4992 18.2683H50.2309V19H49.4992V18.2683ZM50.2309 18.2683H50.9627V19H50.2309V18.2683ZM49.4992 17.5366H50.2309V18.2683H49.4992V17.5366ZM48.7675 17.5366H49.4992V18.2683H48.7675V17.5366ZM48.0358 17.5366H48.7675V18.2683H48.0358V17.5366ZM47.3041 17.5366H48.0358V18.2683H47.3041V17.5366ZM46.5724 17.5366H47.3041V18.2683H46.5724V17.5366ZM45.8407 17.5366H46.5724V18.2683H45.8407V17.5366ZM45.8407 16.8049H46.5724V17.5366H45.8407V16.8049ZM46.5724 16.8049H47.3041V17.5366H46.5724V16.8049ZM47.3041 16.8049H48.0358V17.5366H47.3041V16.8049ZM48.0358 16.8049H48.7675V17.5366H48.0358V16.8049ZM48.7675 16.8049H49.4992V17.5366H48.7675V16.8049ZM49.4992 16.8049H50.2309V17.5366H49.4992V16.8049ZM50.2309 17.5366H50.9627V18.2683H50.2309V17.5366ZM50.9627 17.5366H51.6944V18.2683H50.9627V17.5366ZM51.6944 17.5366H52.4261V18.2683H51.6944V17.5366ZM51.6944 16.8049H52.4261V17.5366H51.6944V16.8049ZM52.4261 16.8049H53.1578V17.5366H52.4261V16.8049ZM52.4261 16.0732H53.1578V16.8049H52.4261V16.0732ZM51.6944 16.0732H52.4261V16.8049H51.6944V16.0732ZM50.9627 16.0732H51.6944V16.8049H50.9627V16.0732ZM50.2309 16.0732H50.9627V16.8049H50.2309V16.0732ZM49.4992 16.0732H50.2309V16.8049H49.4992V16.0732ZM48.7675 16.0732H49.4992V16.8049H48.7675V16.0732ZM48.0358 16.0732H48.7675V16.8049H48.0358V16.0732ZM47.3041 16.0732H48.0358V16.8049H47.3041V16.0732ZM46.5724 16.0732H47.3041V16.8049H46.5724V16.0732ZM50.2309 16.8049H50.9627V17.5366H50.2309V16.8049ZM50.9627 16.8049H51.6944V17.5366H50.9627V16.8049ZM45.109 16.8049H45.8407V17.5366H45.109V16.8049ZM45.109 16.0732H45.8407V16.8049H45.109V16.0732ZM45.109 15.3415H45.8407V16.0732H45.109V15.3415ZM45.109 14.6098H45.8407V15.3415H45.109V14.6098ZM45.109 13.878H45.8407V14.6098H45.109V13.878ZM45.109 13.1463H45.8407V13.878H45.109V13.1463ZM45.109 12.4146H45.8407V13.1463H45.109V12.4146ZM45.109 11.6829H45.8407V12.4146H45.109V11.6829ZM45.109 10.9512H45.8407V11.6829H45.109V10.9512ZM45.109 10.2195H45.8407V10.9512H45.109V10.2195ZM45.109 9.48781H45.8407V10.2195H45.109V9.48781ZM45.109 8.7561H45.8407V9.48781H45.109V8.7561ZM45.109 8.02439H45.8407V8.7561H45.109V8.02439ZM44.3773 8.02439H45.109V8.7561H44.3773V8.02439ZM44.3773 8.7561H45.109V9.48781H44.3773V8.7561ZM44.3773 9.48781H45.109V10.2195H44.3773V9.48781ZM44.3773 10.2195H45.109V10.9512H44.3773V10.2195ZM44.3773 10.9512H45.109V11.6829H44.3773V10.9512ZM44.3773 11.6829H45.109V12.4146H44.3773V11.6829ZM44.3773 12.4146H45.109V13.1463H44.3773V12.4146ZM43.6456 13.1463H44.3773V13.878H43.6456V13.1463ZM43.6456 13.878H44.3773V14.6098H43.6456V13.878ZM43.6456 14.6098H44.3773V15.3415H43.6456V14.6098ZM43.6456 15.3415H44.3773V16.0732H43.6456V15.3415ZM43.6456 16.0732H44.3773V16.8049H43.6456V16.0732ZM43.6456 16.8049H44.3773V17.5366H43.6456V16.8049ZM43.6456 17.5366H44.3773V18.2683H43.6456V17.5366ZM43.6456 18.2683H44.3773V19H43.6456V18.2683ZM42.9139 18.2683H43.6456V19H42.9139V18.2683ZM42.1822 18.2683H42.9139V19H42.1822V18.2683ZM42.1822 17.5366H42.9139V18.2683H42.1822V17.5366ZM42.1822 16.8049H42.9139V17.5366H42.1822V16.8049ZM42.1822 16.0732H42.9139V16.8049H42.1822V16.0732ZM42.1822 15.3415H42.9139V16.0732H42.1822V15.3415ZM42.1822 14.6098H42.9139V15.3415H42.1822V14.6098ZM42.1822 13.878H42.9139V14.6098H42.1822V13.878ZM42.1822 13.1463H42.9139V13.878H42.1822V13.1463ZM42.9139 13.1463H43.6456V13.878H42.9139V13.1463ZM42.9139 12.4146H43.6456V13.1463H42.9139V12.4146ZM42.9139 13.878H43.6456V14.6098H42.9139V13.878ZM42.9139 14.6098H43.6456V15.3415H42.9139V14.6098ZM42.9139 15.3415H43.6456V16.0732H42.9139V15.3415ZM42.9139 16.0732H43.6456V16.8049H42.9139V16.0732ZM42.9139 16.8049H43.6456V17.5366H42.9139V16.8049ZM42.9139 17.5366H43.6456V18.2683H42.9139V17.5366ZM44.3773 16.8049H45.109V17.5366H44.3773V16.8049ZM44.3773 16.0732H45.109V16.8049H44.3773V16.0732ZM44.3773 15.3415H45.109V16.0732H44.3773V15.3415ZM44.3773 14.6098H45.109V15.3415H44.3773V14.6098ZM44.3773 13.878H45.109V14.6098H44.3773V13.878ZM44.3773 13.1463H45.109V13.878H44.3773V13.1463ZM45.109 19H45.8407V19.7317H45.109V19ZM45.109 19.7317H45.8407V20.4634H45.109V19.7317ZM45.109 20.4634H45.8407V21.1951H45.109V20.4634ZM45.109 21.1951H45.8407V21.9268H45.109V21.1951ZM45.109 21.9268H45.8407V22.6585H45.109V21.9268ZM45.109 22.6585H45.8407V23.3902H45.109V22.6585ZM45.109 5.82927H45.8407V6.56098H45.109V5.82927ZM45.109 7.29268H45.8407V8.02439H45.109V7.29268ZM42.9139 19H43.6456V19.7317H42.9139V19ZM42.9139 19.7317H43.6456V20.4634H42.9139V19.7317ZM42.9139 20.4634H43.6456V21.1951H42.9139V20.4634ZM42.9139 21.1951H43.6456V21.9268H42.9139V21.1951ZM42.9139 21.9268H43.6456V22.6585H42.9139V21.9268ZM42.9139 22.6585H43.6456V23.3902H42.9139V22.6585ZM42.9139 5.82927H43.6456V6.56098H42.9139V5.82927ZM42.9139 6.56098H43.6456V7.29268H42.9139V6.56098ZM42.9139 7.29268H43.6456V8.02439H42.9139V7.29268ZM42.9139 8.7561H43.6456V9.48781H42.9139V8.7561ZM42.9139 9.48781H43.6456V10.2195H42.9139V9.48781ZM42.9139 10.2195H43.6456V10.9512H42.9139V10.2195ZM42.1822 10.9512H42.9139V11.6829H42.1822V10.9512ZM42.1822 11.6829H42.9139V12.4146H42.1822V11.6829ZM42.1822 12.4146H42.9139V13.1463H42.1822V12.4146ZM42.1822 10.2195H42.9139V10.9512H42.1822V10.2195ZM42.1822 9.48781H42.9139V10.2195H42.1822V9.48781ZM42.1822 8.02439H42.9139V8.7561H42.1822V8.02439ZM42.1822 7.29268H42.9139V8.02439H42.1822V7.29268ZM42.1822 6.56098H42.9139V7.29268H42.1822V6.56098ZM42.1822 5.82927H42.9139V6.56098H42.1822V5.82927ZM42.1822 5.09756H42.9139V5.82927H42.1822V5.09756ZM42.1822 22.6585H42.9139V23.3902H42.1822V22.6585ZM42.1822 21.9268H42.9139V22.6585H42.1822V21.9268ZM42.9139 5.09756H43.6456V5.82927H42.9139V5.09756ZM42.1822 21.1951H42.9139V21.9268H42.1822V21.1951ZM42.1822 20.4634H42.9139V21.1951H42.1822V20.4634ZM42.1822 19.7317H42.9139V20.4634H42.1822V19.7317ZM42.1822 19H42.9139V19.7317H42.1822V19ZM43.6456 19H44.3773V19.7317H43.6456V19ZM44.3773 19H45.109V19.7317H44.3773V19ZM44.3773 19.7317H45.109V20.4634H44.3773V19.7317ZM43.6456 19.7317H44.3773V20.4634H43.6456V19.7317ZM43.6456 20.4634H44.3773V21.1951H43.6456V20.4634ZM43.6456 21.1951H44.3773V21.9268H43.6456V21.1951ZM43.6456 21.9268H44.3773V22.6585H43.6456V21.9268ZM43.6456 22.6585H44.3773V23.3902H43.6456V22.6585ZM43.6456 5.09756H44.3773V5.82927H43.6456V5.09756ZM43.6456 5.82927H44.3773V6.56098H43.6456V5.82927ZM44.3773 6.56098H45.109V7.29268H44.3773V6.56098ZM44.3773 7.29268H45.109V8.02439H44.3773V7.29268ZM44.3773 5.82927H45.109V6.56098H44.3773V5.82927ZM44.3773 5.09756H45.109V5.82927H44.3773V5.09756ZM44.3773 22.6585H45.109V23.3902H44.3773V22.6585ZM44.3773 21.9268H45.109V22.6585H44.3773V21.9268ZM44.3773 21.1951H45.109V21.9268H44.3773V21.1951ZM44.3773 20.4634H45.109V21.1951H44.3773V20.4634ZM43.6456 7.29268H44.3773V8.02439H43.6456V7.29268ZM43.6456 8.7561H44.3773V9.48781H43.6456V8.7561ZM43.6456 9.48781H44.3773V10.2195H43.6456V9.48781ZM43.6456 10.2195H44.3773V10.9512H43.6456V10.2195ZM43.6456 10.9512H44.3773V11.6829H43.6456V10.9512ZM43.6456 11.6829H44.3773V12.4146H43.6456V11.6829ZM43.6456 12.4146H44.3773V13.1463H43.6456V12.4146ZM42.9139 11.6829H43.6456V12.4146H42.9139V11.6829ZM42.9139 10.9512H43.6456V11.6829H42.9139V10.9512ZM45.109 5.09756H45.8407V5.82927H45.109V5.09756ZM42.1822 8.7561H42.9139V9.48781H42.1822V8.7561ZM45.109 6.56098H45.8407V7.29268H45.109V6.56098ZM43.6456 6.56098H44.3773V7.29268H43.6456V6.56098ZM43.6456 8.02439H44.3773V8.7561H43.6456V8.02439ZM42.9139 8.02439H43.6456V8.7561H42.9139V8.02439ZM45.109 17.5366H45.8407V18.2683H45.109V17.5366ZM44.3773 17.5366H45.109V18.2683H44.3773V17.5366ZM44.3773 18.2683H45.109V19H44.3773V18.2683ZM47.3041 5.09756V5.82927H46.5724V5.09756H47.3041ZM45.8407 18.2683V19H45.109V18.2683H45.8407ZM46.5724 8.02439V8.7561H45.8407V8.02439H46.5724ZM46.5724 18.2683V19H45.8407V18.2683H46.5724ZM59.7567 2.17073V2.90244H59.025V2.17073H59.7567ZM59.7567 2.90244V3.63415H59.025V2.90244H59.7567ZM59.7567 3.63415V4.36585H59.025V3.63415H59.7567ZM59.7567 4.36585V5.09756H59.025V4.36585H59.7567ZM59.7567 5.09756V5.82927H59.025V5.09756H59.7567ZM59.7567 5.82927V6.56098H59.025V5.82927H59.7567ZM59.7567 6.56098V7.29268H59.025V6.56098H59.7567ZM59.7567 7.29268V8.02439H59.025V7.29268H59.7567ZM60.4884 7.29268V8.02439H59.7567V7.29268H60.4884ZM61.2201 7.29268V8.02439H60.4884V7.29268H61.2201ZM61.9518 7.29268V8.02439H61.2201V7.29268H61.9518ZM62.6835 7.29268V8.02439H61.9518V7.29268H62.6835ZM59.7567 8.7561V9.48781H59.025V8.7561H59.7567ZM59.025 8.7561V9.48781H58.2933V8.7561H59.025ZM59.025 8.02439V8.7561H58.2933V8.02439H59.025ZM59.7567 8.02439V8.7561H59.025V8.02439H59.7567ZM59.7567 9.48781V10.2195H59.025V9.48781H59.7567ZM59.025 9.48781V10.2195H58.2933V9.48781H59.025ZM58.2933 9.48781V10.2195H57.5616V9.48781H58.2933ZM57.5616 9.48781V10.2195H56.8299V9.48781H57.5616ZM56.8299 9.48781V10.2195H56.0982V9.48781H56.8299ZM55.3665 7.29268V8.02439H54.6348V7.29268H55.3665ZM56.0982 7.29268V8.02439H55.3665V7.29268H56.0982ZM56.8299 7.29268V8.02439H56.0982V7.29268H56.8299ZM57.5616 7.29268V8.02439H56.8299V7.29268H57.5616ZM58.2933 7.29268V8.02439H57.5616V7.29268H58.2933ZM59.025 7.29268V8.02439H58.2933V7.29268H59.025ZM58.2933 8.7561V9.48781H57.5616V8.7561H58.2933ZM58.2933 8.02439V8.7561H57.5616V8.02439H58.2933ZM57.5616 8.02439V8.7561H56.8299V8.02439H57.5616ZM56.8299 8.02439V8.7561H56.0982V8.02439H56.8299ZM56.8299 8.7561V9.48781H56.0982V8.7561H56.8299ZM57.5616 8.7561V9.48781H56.8299V8.7561H57.5616ZM59.025 2.90244V3.63415H58.2933V2.90244H59.025ZM59.025 3.63415V4.36585H58.2933V3.63415H59.025ZM58.2933 3.63415V4.36585H57.5616V3.63415H58.2933ZM58.2933 4.36585V5.09756H57.5616V4.36585H58.2933ZM58.2933 5.09756V5.82927H57.5616V5.09756H58.2933ZM57.5616 4.36585V5.09756H56.8299V4.36585H57.5616ZM57.5616 5.09756V5.82927H56.8299V5.09756H57.5616ZM56.8299 5.09756V5.82927H56.0982V5.09756H56.8299ZM56.8299 5.82927V6.56098H56.0982V5.82927H56.8299ZM56.8299 6.56098V7.29268H56.0982V6.56098H56.8299ZM58.2933 6.56098V7.29268H57.5616V6.56098H58.2933ZM59.025 6.56098V7.29268H58.2933V6.56098H59.025ZM59.025 5.82927V6.56098H58.2933V5.82927H59.025ZM59.025 5.09756V5.82927H58.2933V5.09756H59.025ZM59.025 4.36585V5.09756H58.2933V4.36585H59.025ZM58.2933 5.82927V6.56098H57.5616V5.82927H58.2933ZM57.5616 6.56098V7.29268H56.8299V6.56098H57.5616ZM57.5616 5.82927V6.56098H56.8299V5.82927H57.5616ZM62.6835 16.0732V16.8049H61.9518V16.0732H62.6835ZM62.6835 16.8049V17.5366H61.9518V16.8049H62.6835ZM62.6835 18.2683V19H61.9518V18.2683H62.6835ZM61.9518 18.2683V19H61.2201V18.2683H61.9518ZM61.2201 18.2683V19H60.4884V18.2683H61.2201ZM60.4884 18.2683V19H59.7567V18.2683H60.4884ZM59.7567 18.2683V19H59.025V18.2683H59.7567ZM59.7567 17.5366V18.2683H59.025V17.5366H59.7567ZM59.025 17.5366V18.2683H58.2933V17.5366H59.025ZM58.2933 17.5366V18.2683H57.5616V17.5366H58.2933ZM58.2933 16.8049V17.5366H57.5616V16.8049H58.2933ZM57.5616 16.8049V17.5366H56.8299V16.8049H57.5616ZM57.5616 16.0732V16.8049H56.8299V16.0732H57.5616ZM57.5616 15.3415V16.0732H56.8299V15.3415H57.5616ZM56.8299 15.3415V16.0732H56.0982V15.3415H56.8299ZM56.8299 14.6098V15.3415H56.0982V14.6098H56.8299ZM56.8299 13.878V14.6098H56.0982V13.878H56.8299ZM56.8299 13.1463V13.878H56.0982V13.1463H56.8299ZM56.8299 12.4146V13.1463H56.0982V12.4146H56.8299ZM56.8299 11.6829V12.4146H56.0982V11.6829H56.8299ZM56.8299 10.9512V11.6829H56.0982V10.9512H56.8299ZM56.8299 10.2195V10.9512H56.0982V10.2195H56.8299ZM57.5616 10.2195V10.9512H56.8299V10.2195H57.5616ZM58.2933 10.2195V10.9512H57.5616V10.2195H58.2933ZM59.025 10.2195V10.9512H58.2933V10.2195H59.025ZM59.7567 10.2195V10.9512H59.025V10.2195H59.7567ZM59.7567 10.9512V11.6829H59.025V10.9512H59.7567ZM59.7567 11.6829V12.4146H59.025V11.6829H59.7567ZM59.7567 12.4146V13.1463H59.025V12.4146H59.7567ZM59.7567 13.1463V13.878H59.025V13.1463H59.7567ZM59.7567 13.878V14.6098H59.025V13.878H59.7567ZM59.7567 14.6098V15.3415H59.025V14.6098H59.7567ZM59.7567 15.3415V16.0732H59.025V15.3415H59.7567ZM60.4884 15.3415V16.0732H59.7567V15.3415H60.4884ZM60.4884 16.0732V16.8049H59.7567V16.0732H60.4884ZM61.2201 16.0732V16.8049H60.4884V16.0732H61.2201ZM61.2201 16.8049V17.5366H60.4884V16.8049H61.2201ZM61.9518 16.8049V17.5366H61.2201V16.8049H61.9518ZM61.9518 16.0732V16.8049H61.2201V16.0732H61.9518ZM62.6835 17.5366V18.2683H61.9518V17.5366H62.6835ZM61.9518 17.5366V18.2683H61.2201V17.5366H61.9518ZM61.2201 17.5366V18.2683H60.4884V17.5366H61.2201ZM60.4884 17.5366V18.2683H59.7567V17.5366H60.4884ZM60.4884 16.8049V17.5366H59.7567V16.8049H60.4884ZM59.7567 16.8049V17.5366H59.025V16.8049H59.7567ZM59.7567 16.0732V16.8049H59.025V16.0732H59.7567ZM59.025 16.0732V16.8049H58.2933V16.0732H59.025ZM59.025 16.8049V17.5366H58.2933V16.8049H59.025ZM58.2933 16.0732V16.8049H57.5616V16.0732H58.2933ZM59.025 15.3415V16.0732H58.2933V15.3415H59.025ZM59.025 14.6098V15.3415H58.2933V14.6098H59.025ZM58.2933 15.3415V16.0732H57.5616V15.3415H58.2933ZM58.2933 14.6098V15.3415H57.5616V14.6098H58.2933ZM59.025 13.878V14.6098H58.2933V13.878H59.025ZM59.025 13.1463V13.878H58.2933V13.1463H59.025ZM59.025 12.4146V13.1463H58.2933V12.4146H59.025ZM59.025 11.6829V12.4146H58.2933V11.6829H59.025ZM59.025 10.9512V11.6829H58.2933V10.9512H59.025ZM58.2933 10.9512V11.6829H57.5616V10.9512H58.2933ZM57.5616 10.9512V11.6829H56.8299V10.9512H57.5616ZM57.5616 11.6829V12.4146H56.8299V11.6829H57.5616ZM57.5616 12.4146V13.1463H56.8299V12.4146H57.5616ZM57.5616 13.1463V13.878H56.8299V13.1463H57.5616ZM57.5616 13.878V14.6098H56.8299V13.878H57.5616ZM57.5616 14.6098V15.3415H56.8299V14.6098H57.5616ZM58.2933 13.878V14.6098H57.5616V13.878H58.2933ZM58.2933 13.1463V13.878H57.5616V13.1463H58.2933ZM58.2933 12.4146V13.1463H57.5616V12.4146H58.2933ZM58.2933 11.6829V12.4146H57.5616V11.6829H58.2933ZM62.6835 5.82927V6.56098H61.9518V5.82927H62.6835ZM61.9518 5.82927V6.56098H61.2201V5.82927H61.9518ZM61.9518 6.56098V7.29268H61.2201V6.56098H61.9518ZM62.6835 6.56098V7.29268H61.9518V6.56098H62.6835ZM61.2201 6.56098V7.29268H60.4884V6.56098H61.2201ZM60.4884 6.56098V7.29268H59.7567V6.56098H60.4884ZM60.4884 5.82927V6.56098H59.7567V5.82927H60.4884ZM61.2201 5.82927V6.56098H60.4884V5.82927H61.2201ZM56.8299 4.36585V5.09756H56.0982V4.36585H56.8299ZM57.5616 3.63415V4.36585H56.8299V3.63415H57.5616ZM58.2933 2.90244V3.63415H57.5616V2.90244H58.2933ZM59.025 2.17073V2.90244H58.2933V2.17073H59.025ZM56.0982 5.82927V6.56098H55.3665V5.82927H56.0982ZM56.0982 6.56098V7.29268H55.3665V6.56098H56.0982ZM55.3665 6.56098V7.29268H54.6348V6.56098H55.3665ZM55.3665 5.82927V6.56098H54.6348V5.82927H55.3665ZM59.7567 1.43903V2.17073H59.025V1.43903H59.7567ZM55.3665 8.02439V8.7561H54.6348V8.02439H55.3665ZM56.0982 8.02439V8.7561H55.3665V8.02439H56.0982ZM60.4884 8.02439V8.7561H59.7567V8.02439H60.4884ZM61.2201 8.02439V8.7561H60.4884V8.02439H61.2201ZM61.9518 8.02439V8.7561H61.2201V8.02439H61.9518ZM62.6835 8.02439V8.7561H61.9518V8.02439H62.6835ZM65.6189 15.3415V16.0732H64.8872V15.3415H65.6189ZM65.6189 14.6098V15.3415H64.8872V14.6098H65.6189ZM65.6189 13.878V14.6098H64.8872V13.878H65.6189ZM65.6189 13.1463V13.878H64.8872V13.1463H65.6189ZM65.6189 12.4146V13.1463H64.8872V12.4146H65.6189ZM65.6189 11.6829V12.4146H64.8872V11.6829H65.6189ZM65.6189 10.9512V11.6829H64.8872V10.9512H65.6189ZM65.6189 10.2195V10.9512H64.8872V10.2195H65.6189ZM65.6189 9.48781V10.2195H64.8872V9.48781H65.6189ZM65.6189 8.7561V9.48781H64.8872V8.7561H65.6189ZM65.6189 8.02439V8.7561H64.8872V8.02439H65.6189ZM66.3507 8.02439V8.7561H65.6189V8.02439H66.3507ZM66.3507 8.7561V9.48781H65.6189V8.7561H66.3507ZM66.3507 9.48781V10.2195H65.6189V9.48781H66.3507ZM66.3507 10.2195V10.9512H65.6189V10.2195H66.3507ZM66.3507 10.9512V11.6829H65.6189V10.9512H66.3507ZM66.3507 11.6829V12.4146H65.6189V11.6829H66.3507ZM66.3507 12.4146V13.1463H65.6189V12.4146H66.3507ZM67.0824 13.1463V13.878H66.3507V13.1463H67.0824ZM67.0824 13.878V14.6098H66.3507V13.878H67.0824ZM67.0824 14.6098V15.3415H66.3507V14.6098H67.0824ZM67.0824 15.3415V16.0732H66.3507V15.3415H67.0824ZM67.0824 16.0732V16.8049H66.3507V16.0732H67.0824ZM67.0824 16.8049V17.5366H66.3507V16.8049H67.0824ZM67.0824 17.5366V18.2683H66.3507V17.5366H67.0824ZM68.5458 18.2683V19H67.8141V18.2683H68.5458ZM68.5458 17.5366V18.2683H67.8141V17.5366H68.5458ZM68.5458 16.8049V17.5366H67.8141V16.8049H68.5458ZM68.5458 16.0732V16.8049H67.8141V16.0732H68.5458ZM68.5458 15.3415V16.0732H67.8141V15.3415H68.5458ZM68.5458 14.6098V15.3415H67.8141V14.6098H68.5458ZM68.5458 13.878V14.6098H67.8141V13.878H68.5458ZM68.5458 13.1463V13.878H67.8141V13.1463H68.5458ZM67.8141 13.1463V13.878H67.0824V13.1463H67.8141ZM67.8141 12.4146V13.1463H67.0824V12.4146H67.8141ZM67.8141 13.878V14.6098H67.0824V13.878H67.8141ZM67.8141 14.6098V15.3415H67.0824V14.6098H67.8141ZM67.8141 15.3415V16.0732H67.0824V15.3415H67.8141ZM67.8141 16.0732V16.8049H67.0824V16.0732H67.8141ZM67.8141 16.8049V17.5366H67.0824V16.8049H67.8141ZM67.8141 17.5366V18.2683H67.0824V17.5366H67.8141ZM66.3507 16.8049V17.5366H65.6189V16.8049H66.3507ZM66.3507 16.0732V16.8049H65.6189V16.0732H66.3507ZM66.3507 15.3415V16.0732H65.6189V15.3415H66.3507ZM66.3507 14.6098V15.3415H65.6189V14.6098H66.3507ZM66.3507 13.878V14.6098H65.6189V13.878H66.3507ZM66.3507 13.1463V13.878H65.6189V13.1463H66.3507ZM65.6189 7.29268V8.02439H64.8872V7.29268H65.6189ZM67.8141 7.29268V8.02439H67.0824V7.29268H67.8141ZM67.8141 8.02439V8.7561H67.0824V8.02439H67.8141ZM67.8141 8.7561V9.48781H67.0824V8.7561H67.8141ZM67.8141 9.48781V10.2195H67.0824V9.48781H67.8141ZM67.8141 10.2195V10.9512H67.0824V10.2195H67.8141ZM68.5458 10.9512V11.6829H67.8141V10.9512H68.5458ZM68.5458 11.6829V12.4146H67.8141V11.6829H68.5458ZM68.5458 12.4146V13.1463H67.8141V12.4146H68.5458ZM68.5458 10.2195V10.9512H67.8141V10.2195H68.5458ZM68.5458 9.48781V10.2195H67.8141V9.48781H68.5458ZM68.5458 8.7561V9.48781H67.8141V8.7561H68.5458ZM68.5458 8.02439V8.7561H67.8141V8.02439H68.5458ZM68.5458 7.29268V8.02439H67.8141V7.29268H68.5458ZM66.3507 7.29268V8.02439H65.6189V7.29268H66.3507ZM67.0824 7.29268V8.02439H66.3507V7.29268H67.0824ZM67.0824 8.02439V8.7561H66.3507V8.02439H67.0824ZM67.0824 8.7561V9.48781H66.3507V8.7561H67.0824ZM67.0824 9.48781V10.2195H66.3507V9.48781H67.0824ZM67.0824 10.2195V10.9512H66.3507V10.2195H67.0824ZM67.0824 10.9512V11.6829H66.3507V10.9512H67.0824ZM67.0824 11.6829V12.4146H66.3507V11.6829H67.0824ZM67.0824 12.4146V13.1463H66.3507V12.4146H67.0824ZM67.8141 11.6829V12.4146H67.0824V11.6829H67.8141ZM67.8141 10.9512V11.6829H67.0824V10.9512H67.8141ZM74.3994 18.2683V19H73.6677V18.2683H74.3994ZM74.3994 17.5366V18.2683H73.6677V17.5366H74.3994ZM74.3994 16.8049V17.5366H73.6677V16.8049H74.3994ZM74.3994 16.0732V16.8049H73.6677V16.0732H74.3994ZM74.3994 15.3415V16.0732H73.6677V15.3415H74.3994ZM74.3994 14.6098V15.3415H73.6677V14.6098H74.3994ZM74.3994 13.878V14.6098H73.6677V13.878H74.3994ZM74.3994 13.1463V13.878H73.6677V13.1463H74.3994ZM74.3994 12.4146V13.1463H73.6677V12.4146H74.3994ZM74.3994 11.6829V12.4146H73.6677V11.6829H74.3994ZM74.3994 10.9512V11.6829H73.6677V10.9512H74.3994ZM74.3994 10.2195V10.9512H73.6677V10.2195H74.3994ZM74.3994 9.48781V10.2195H73.6677V9.48781H74.3994ZM74.3994 8.7561V9.48781H73.6677V8.7561H74.3994ZM74.3994 8.02439V8.7561H73.6677V8.02439H74.3994ZM75.1311 8.02439V8.7561H74.3994V8.02439H75.1311ZM75.1311 8.7561V9.48781H74.3994V8.7561H75.1311ZM75.1311 9.48781V10.2195H74.3994V9.48781H75.1311ZM75.1311 10.2195V10.9512H74.3994V10.2195H75.1311ZM75.1311 10.9512V11.6829H74.3994V10.9512H75.1311ZM75.1311 11.6829V12.4146H74.3994V11.6829H75.1311ZM75.1311 12.4146V13.1463H74.3994V12.4146H75.1311ZM75.8629 13.1463V13.878H75.1311V13.1463H75.8629ZM75.8629 13.878V14.6098H75.1311V13.878H75.8629ZM75.8629 14.6098V15.3415H75.1311V14.6098H75.8629ZM75.8629 15.3415V16.0732H75.1311V15.3415H75.8629ZM75.8629 16.0732V16.8049H75.1311V16.0732H75.8629ZM75.8629 16.8049V17.5366H75.1311V16.8049H75.8629ZM75.8629 17.5366V18.2683H75.1311V17.5366H75.8629ZM77.3263 15.3415V16.0732H76.5946V15.3415H77.3263ZM77.3263 14.6098V15.3415H76.5946V14.6098H77.3263ZM77.3263 13.878V14.6098H76.5946V13.878H77.3263ZM77.3263 13.1463V13.878H76.5946V13.1463H77.3263ZM76.5946 13.1463V13.878H75.8629V13.1463H76.5946ZM76.5946 12.4146V13.1463H75.8629V12.4146H76.5946ZM76.5946 13.878V14.6098H75.8629V13.878H76.5946ZM76.5946 14.6098V15.3415H75.8629V14.6098H76.5946ZM76.5946 15.3415V16.0732H75.8629V15.3415H76.5946ZM76.5946 16.0732V16.8049H75.8629V16.0732H76.5946ZM76.5946 16.8049V17.5366H75.8629V16.8049H76.5946ZM75.1311 17.5366V18.2683H74.3994V17.5366H75.1311ZM75.1311 16.8049V17.5366H74.3994V16.8049H75.1311ZM75.1311 16.0732V16.8049H74.3994V16.0732H75.1311ZM75.1311 15.3415V16.0732H74.3994V15.3415H75.1311ZM75.1311 14.6098V15.3415H74.3994V14.6098H75.1311ZM75.1311 13.878V14.6098H74.3994V13.878H75.1311ZM75.1311 13.1463V13.878H74.3994V13.1463H75.1311ZM74.3994 7.29268V8.02439H73.6677V7.29268H74.3994ZM76.5946 7.29268V8.02439H75.8629V7.29268H76.5946ZM76.5946 8.02439V8.7561H75.8629V8.02439H76.5946ZM76.5946 8.7561V9.48781H75.8629V8.7561H76.5946ZM76.5946 9.48781V10.2195H75.8629V9.48781H76.5946ZM76.5946 10.2195V10.9512H75.8629V10.2195H76.5946ZM77.3263 10.9512V11.6829H76.5946V10.9512H77.3263ZM77.3263 11.6829V12.4146H76.5946V11.6829H77.3263ZM77.3263 12.4146V13.1463H76.5946V12.4146H77.3263ZM77.3263 10.2195V10.9512H76.5946V10.2195H77.3263ZM77.3263 9.48781V10.2195H76.5946V9.48781H77.3263ZM77.3263 8.7561V9.48781H76.5946V8.7561H77.3263ZM77.3263 8.02439V8.7561H76.5946V8.02439H77.3263ZM77.3263 7.29268V8.02439H76.5946V7.29268H77.3263ZM75.1311 7.29268V8.02439H74.3994V7.29268H75.1311ZM75.8629 7.29268V8.02439H75.1311V7.29268H75.8629ZM75.8629 8.02439V8.7561H75.1311V8.02439H75.8629ZM75.8629 8.7561V9.48781H75.1311V8.7561H75.8629ZM75.8629 9.48781V10.2195H75.1311V9.48781H75.8629ZM75.8629 10.2195V10.9512H75.1311V10.2195H75.8629ZM75.8629 10.9512V11.6829H75.1311V10.9512H75.8629ZM75.8629 11.6829V12.4146H75.1311V11.6829H75.8629ZM75.8629 12.4146V13.1463H75.1311V12.4146H75.8629ZM76.5946 11.6829V12.4146H75.8629V11.6829H76.5946ZM76.5946 10.9512V11.6829H75.8629V10.9512H76.5946ZM69.2775 18.2683V19H68.5458V18.2683H69.2775ZM70.0092 18.2683V19H69.2775V18.2683H70.0092ZM71.4726 18.2683V19H70.7409V18.2683H71.4726ZM72.2043 18.2683V19H71.4726V18.2683H72.2043ZM72.936 18.2683V19H72.2043V18.2683H72.936ZM73.6677 18.2683V19H72.936V18.2683H73.6677ZM73.6677 17.5366V18.2683H72.936V17.5366H73.6677ZM72.936 17.5366V18.2683H72.2043V17.5366H72.936ZM72.2043 17.5366V18.2683H71.4726V17.5366H72.2043ZM71.4726 17.5366V18.2683H70.7409V17.5366H71.4726ZM70.0092 17.5366V18.2683H69.2775V17.5366H70.0092ZM69.2775 17.5366V18.2683H68.5458V17.5366H69.2775ZM69.2775 16.8049V17.5366H68.5458V16.8049H69.2775ZM70.0092 16.8049V17.5366H69.2775V16.8049H70.0092ZM71.4726 16.8049V17.5366H70.7409V16.8049H71.4726ZM72.2043 16.8049V17.5366H71.4726V16.8049H72.2043ZM72.936 16.8049V17.5366H72.2043V16.8049H72.936ZM73.6677 16.8049V17.5366H72.936V16.8049H73.6677ZM73.6677 16.0732V16.8049H72.936V16.0732H73.6677ZM72.936 16.0732V16.8049H72.2043V16.0732H72.936ZM72.2043 16.0732V16.8049H71.4726V16.0732H72.2043ZM71.4726 16.0732V16.8049H70.7409V16.0732H71.4726ZM70.0092 16.0732V16.8049H69.2775V16.0732H70.0092ZM69.2775 16.0732V16.8049H68.5458V16.0732H69.2775ZM69.2775 15.3415V16.0732H68.5458V15.3415H69.2775ZM73.6677 15.3415V16.0732H72.936V15.3415H73.6677ZM76.5946 4.36585V3.63415H77.3263V4.36585H76.5946ZM76.5946 5.09756V4.36585H77.3263V5.09756H76.5946ZM76.5946 5.82927V5.09756H77.3263V5.82927H76.5946ZM75.1311 5.82927V5.09756H75.8629V5.82927H75.1311ZM75.1311 5.09756V4.36585H75.8629V5.09756H75.1311ZM75.1311 4.36585V3.63415H75.8629V4.36585H75.1311ZM75.1311 3.63415V2.90244H75.8629V3.63415H75.1311ZM75.1311 2.90244V2.17073H75.8629V2.90244H75.1311ZM75.1311 2.17073V1.43903H75.8629V2.17073H75.1311ZM73.6677 1.43903V0.707317H74.3994V1.43903H73.6677ZM73.6677 2.17073V1.43903H74.3994V2.17073H73.6677ZM73.6677 2.90244V2.17073H74.3994V2.90244H73.6677ZM73.6677 3.63415V2.90244H74.3994V3.63415H73.6677ZM73.6677 4.36585V3.63415H74.3994V4.36585H73.6677ZM73.6677 5.09756V4.36585H74.3994V5.09756H73.6677ZM73.6677 5.82927V5.09756H74.3994V5.82927H73.6677ZM74.3994 5.82927V5.09756H75.1311V5.82927H74.3994ZM74.3994 5.09756V4.36585H75.1311V5.09756H74.3994ZM74.3994 4.36585V3.63415H75.1311V4.36585H74.3994ZM74.3994 3.63415V2.90244H75.1311V3.63415H74.3994ZM74.3994 2.90244V2.17073H75.1311V2.90244H74.3994ZM74.3994 2.17073V1.43903H75.1311V2.17073H74.3994ZM75.8629 2.90244V2.17073H76.5946V2.90244H75.8629ZM75.8629 3.63415V2.90244H76.5946V3.63415H75.8629ZM75.8629 4.36585V3.63415H76.5946V4.36585H75.8629ZM75.8629 5.09756V4.36585H76.5946V5.09756H75.8629ZM75.8629 5.82927V5.09756H76.5946V5.82927H75.8629ZM67.8141 1.43903V0.707317H68.5458V1.43903H67.8141ZM67.8141 2.17073V1.43903H68.5458V2.17073H67.8141ZM67.8141 2.90244V2.17073H68.5458V2.90244H67.8141ZM67.8141 3.63415V2.90244H68.5458V3.63415H67.8141ZM67.8141 4.36585V3.63415H68.5458V4.36585H67.8141ZM67.8141 5.09756V4.36585H68.5458V5.09756H67.8141ZM67.8141 5.82927V5.09756H68.5458V5.82927H67.8141ZM66.3507 5.82927V5.09756H67.0824V5.82927H66.3507ZM66.3507 5.09756V4.36585H67.0824V5.09756H66.3507ZM66.3507 4.36585V3.63415H67.0824V4.36585H66.3507ZM66.3507 3.63415V2.90244H67.0824V3.63415H66.3507ZM66.3507 2.90244V2.17073H67.0824V2.90244H66.3507ZM66.3507 2.17073V1.43903H67.0824V2.17073H66.3507ZM64.8872 4.36585V3.63415H65.6189V4.36585H64.8872ZM64.8872 5.09756V4.36585H65.6189V5.09756H64.8872ZM64.8872 5.82927V5.09756H65.6189V5.82927H64.8872ZM65.6189 5.82927V5.09756H66.3507V5.82927H65.6189ZM65.6189 5.09756V4.36585H66.3507V5.09756H65.6189ZM65.6189 4.36585V3.63415H66.3507V4.36585H65.6189ZM65.6189 3.63415V2.90244H66.3507V3.63415H65.6189ZM65.6189 2.90244V2.17073H66.3507V2.90244H65.6189ZM67.0824 2.17073V1.43903H67.8141V2.17073H67.0824ZM67.0824 2.90244V2.17073H67.8141V2.90244H67.0824ZM67.0824 3.63415V2.90244H67.8141V3.63415H67.0824ZM67.0824 4.36585V3.63415H67.8141V4.36585H67.0824ZM67.0824 5.09756V4.36585H67.8141V5.09756H67.0824ZM67.0824 5.82927V5.09756H67.8141V5.82927H67.0824ZM65.6189 6.56098V7.29268H64.8872V6.56098H65.6189ZM66.3507 6.56098V7.29268H65.6189V6.56098H66.3507ZM65.6189 5.82927V6.56098H64.8872V5.82927H65.6189ZM67.8141 5.82927V6.56098H67.0824V5.82927H67.8141ZM67.8141 6.56098V7.29268H67.0824V6.56098H67.8141ZM68.5458 6.56098V7.29268H67.8141V6.56098H68.5458ZM68.5458 5.82927V6.56098H67.8141V5.82927H68.5458ZM66.3507 5.82927V6.56098H65.6189V5.82927H66.3507ZM67.0824 5.82927V6.56098H66.3507V5.82927H67.0824ZM67.0824 6.56098V7.29268H66.3507V6.56098H67.0824ZM74.3994 6.56098V7.29268H73.6677V6.56098H74.3994ZM75.1311 6.56098V7.29268H74.3994V6.56098H75.1311ZM74.3994 5.82927V6.56098H73.6677V5.82927H74.3994ZM76.5946 5.82927V6.56098H75.8629V5.82927H76.5946ZM76.5946 6.56098V7.29268H75.8629V6.56098H76.5946ZM77.3263 6.56098V7.29268H76.5946V6.56098H77.3263ZM77.3263 5.82927V6.56098H76.5946V5.82927H77.3263ZM75.1311 5.82927V6.56098H74.3994V5.82927H75.1311ZM75.8629 5.82927V6.56098H75.1311V5.82927H75.8629ZM75.8629 6.56098V7.29268H75.1311V6.56098H75.8629ZM70.0092 15.3415V16.0732H69.2775V15.3415H70.0092ZM71.4726 15.3415V16.0732H70.7409V15.3415H71.4726ZM72.2043 15.3415V16.0732H71.4726V15.3415H72.2043ZM72.936 15.3415V16.0732H72.2043V15.3415H72.936ZM73.6677 14.6098V15.3415H72.936V14.6098H73.6677ZM69.2775 14.6098V15.3415H68.5458V14.6098H69.2775ZM65.6189 2.90244V3.63415H64.8872V2.90244H65.6189ZM65.6189 2.17073V2.90244H64.8872V2.17073H65.6189ZM65.6189 1.43903V2.17073H64.8872V1.43903H65.6189ZM65.6189 0.707317V1.43903H64.8872V0.707317H65.6189ZM66.3507 0.707317V1.43903H65.6189V0.707317H66.3507ZM67.0824 0.707317V1.43903H66.3507V0.707317H67.0824ZM67.8141 0.707317V1.43903H67.0824V0.707317H67.8141ZM66.3507 1.43903V2.17073H65.6189V1.43903H66.3507ZM75.1311 0.707317V1.43903H74.3994V0.707317H75.1311ZM75.8629 0.707317V1.43903H75.1311V0.707317H75.8629ZM76.5946 0.707317V1.43903H75.8629V0.707317H76.5946ZM77.3263 0.707317V1.43903H76.5946V0.707317H77.3263ZM77.3263 1.43903V2.17073H76.5946V1.43903H77.3263ZM77.3263 2.17073V2.90244H76.5946V2.17073H77.3263ZM77.3263 2.90244V3.63415H76.5946V2.90244H77.3263ZM76.5946 1.43903V2.17073H75.8629V1.43903H76.5946ZM70.7409 15.3415V16.0732H70.0092V15.3415H70.7409ZM70.7409 16.0732V16.8049H70.0092V16.0732H70.7409ZM70.7409 16.8049V17.5366H70.0092V16.8049H70.7409ZM70.7409 17.5366V18.2683H70.0092V17.5366H70.7409ZM70.7409 18.2683V19H70.0092V18.2683H70.7409ZM80.9705 18.2683V19H80.2388V18.2683H80.9705ZM80.9705 17.5366V18.2683H80.2388V17.5366H80.9705ZM80.9705 16.8049V17.5366H80.2388V16.8049H80.9705ZM80.9705 16.0732V16.8049H80.2388V16.0732H80.9705ZM80.9705 15.3415V16.0732H80.2388V15.3415H80.9705ZM80.9705 14.6098V15.3415H80.2388V14.6098H80.9705ZM80.9705 13.878V14.6098H80.2388V13.878H80.9705ZM80.9705 13.1463V13.878H80.2388V13.1463H80.9705ZM80.9705 12.4146V13.1463H80.2388V12.4146H80.9705ZM80.9705 11.6829V12.4146H80.2388V11.6829H80.9705ZM80.9705 10.9512V11.6829H80.2388V10.9512H80.9705ZM80.9705 10.2195V10.9512H80.2388V10.2195H80.9705ZM80.9705 9.48781V10.2195H80.2388V9.48781H80.9705ZM80.9705 8.7561V9.48781H80.2388V8.7561H80.9705ZM80.9705 8.02439V8.7561H80.2388V8.02439H80.9705ZM81.7022 8.02439V8.7561H80.9705V8.02439H81.7022ZM81.7022 8.7561V9.48781H80.9705V8.7561H81.7022ZM81.7022 9.48781V10.2195H80.9705V9.48781H81.7022ZM81.7022 10.2195V10.9512H80.9705V10.2195H81.7022ZM81.7022 10.9512V11.6829H80.9705V10.9512H81.7022ZM81.7022 11.6829V12.4146H80.9705V11.6829H81.7022ZM81.7022 12.4146V13.1463H80.9705V12.4146H81.7022ZM82.4339 13.1463V13.878H81.7022V13.1463H82.4339ZM82.4339 13.878V14.6098H81.7022V13.878H82.4339ZM82.4339 14.6098V15.3415H81.7022V14.6098H82.4339ZM82.4339 15.3415V16.0732H81.7022V15.3415H82.4339ZM82.4339 16.0732V16.8049H81.7022V16.0732H82.4339ZM82.4339 16.8049V17.5366H81.7022V16.8049H82.4339ZM82.4339 17.5366V18.2683H81.7022V17.5366H82.4339ZM82.4339 18.2683V19H81.7022V18.2683H82.4339ZM83.1656 18.2683V19H82.4339V18.2683H83.1656ZM83.8973 18.2683V19H83.1656V18.2683H83.8973ZM83.8973 17.5366V18.2683H83.1656V17.5366H83.8973ZM83.8973 16.8049V17.5366H83.1656V16.8049H83.8973ZM83.8973 16.0732V16.8049H83.1656V16.0732H83.8973ZM83.8973 15.3415V16.0732H83.1656V15.3415H83.8973ZM83.8973 14.6098V15.3415H83.1656V14.6098H83.8973ZM83.8973 13.878V14.6098H83.1656V13.878H83.8973ZM83.8973 13.1463V13.878H83.1656V13.1463H83.8973ZM83.1656 13.1463V13.878H82.4339V13.1463H83.1656ZM83.1656 12.4146V13.1463H82.4339V12.4146H83.1656ZM83.1656 13.878V14.6098H82.4339V13.878H83.1656ZM83.1656 14.6098V15.3415H82.4339V14.6098H83.1656ZM83.1656 15.3415V16.0732H82.4339V15.3415H83.1656ZM83.1656 16.0732V16.8049H82.4339V16.0732H83.1656ZM83.1656 16.8049V17.5366H82.4339V16.8049H83.1656ZM83.1656 17.5366V18.2683H82.4339V17.5366H83.1656ZM81.7022 18.2683V19H80.9705V18.2683H81.7022ZM81.7022 17.5366V18.2683H80.9705V17.5366H81.7022ZM81.7022 16.8049V17.5366H80.9705V16.8049H81.7022ZM81.7022 16.0732V16.8049H80.9705V16.0732H81.7022ZM81.7022 15.3415V16.0732H80.9705V15.3415H81.7022ZM81.7022 14.6098V15.3415H80.9705V14.6098H81.7022ZM81.7022 13.878V14.6098H80.9705V13.878H81.7022ZM81.7022 13.1463V13.878H80.9705V13.1463H81.7022ZM80.9705 5.09756V5.82927H80.2388V5.09756H80.9705ZM80.9705 5.82927V6.56098H80.2388V5.82927H80.9705ZM80.9705 6.56098V7.29268H80.2388V6.56098H80.9705ZM80.9705 7.29268V8.02439H80.2388V7.29268H80.9705ZM83.1656 5.82927V6.56098H82.4339V5.82927H83.1656ZM83.1656 6.56098V7.29268H82.4339V6.56098H83.1656ZM83.1656 7.29268V8.02439H82.4339V7.29268H83.1656ZM83.1656 8.02439V8.7561H82.4339V8.02439H83.1656ZM83.1656 8.7561V9.48781H82.4339V8.7561H83.1656ZM83.1656 9.48781V10.2195H82.4339V9.48781H83.1656ZM83.1656 10.2195V10.9512H82.4339V10.2195H83.1656ZM83.8973 10.9512V11.6829H83.1656V10.9512H83.8973ZM83.8973 11.6829V12.4146H83.1656V11.6829H83.8973ZM83.8973 12.4146V13.1463H83.1656V12.4146H83.8973ZM83.8973 10.2195V10.9512H83.1656V10.2195H83.8973ZM83.8973 9.48781V10.2195H83.1656V9.48781H83.8973ZM83.8973 8.7561V9.48781H83.1656V8.7561H83.8973ZM83.8973 8.02439V8.7561H83.1656V8.02439H83.8973ZM83.8973 7.29268V8.02439H83.1656V7.29268H83.8973ZM83.8973 6.56098V7.29268H83.1656V6.56098H83.8973ZM83.8973 5.82927V6.56098H83.1656V5.82927H83.8973ZM83.8973 5.09756V5.82927H83.1656V5.09756H83.8973ZM83.1656 5.09756V5.82927H82.4339V5.09756H83.1656ZM82.4339 5.09756V5.82927H81.7022V5.09756H82.4339ZM82.4339 5.82927V6.56098H81.7022V5.82927H82.4339ZM81.7022 6.56098V7.29268H80.9705V6.56098H81.7022ZM81.7022 7.29268V8.02439H80.9705V7.29268H81.7022ZM81.7022 5.82927V6.56098H80.9705V5.82927H81.7022ZM81.7022 5.09756V5.82927H80.9705V5.09756H81.7022ZM82.4339 6.56098V7.29268H81.7022V6.56098H82.4339ZM82.4339 7.29268V8.02439H81.7022V7.29268H82.4339ZM82.4339 8.02439V8.7561H81.7022V8.02439H82.4339ZM82.4339 8.7561V9.48781H81.7022V8.7561H82.4339ZM82.4339 9.48781V10.2195H81.7022V9.48781H82.4339ZM82.4339 10.2195V10.9512H81.7022V10.2195H82.4339ZM82.4339 10.9512V11.6829H81.7022V10.9512H82.4339ZM82.4339 11.6829V12.4146H81.7022V11.6829H82.4339ZM82.4339 12.4146V13.1463H81.7022V12.4146H82.4339ZM83.1656 11.6829V12.4146H82.4339V11.6829H83.1656ZM83.1656 10.9512V11.6829H82.4339V10.9512H83.1656ZM89.0193 8.02439V8.7561H88.2876V8.02439H89.0193ZM89.0193 5.09756V5.82927H88.2876V5.09756H89.0193ZM89.0193 5.82927V6.56098H88.2876V5.82927H89.0193ZM89.751 5.82927V6.56098H89.0193V5.82927H89.751ZM90.4827 6.56098V7.29268H89.751V6.56098H90.4827ZM89.751 7.29268V8.02439H89.0193V7.29268H89.751ZM89.751 6.56098V7.29268H89.0193V6.56098H89.751ZM89.0193 6.56098V7.29268H88.2876V6.56098H89.0193ZM88.2876 6.56098V7.29268H87.5559V6.56098H88.2876ZM88.2876 7.29268V8.02439H87.5559V7.29268H88.2876ZM89.0193 7.29268V8.02439H88.2876V7.29268H89.0193ZM88.2876 8.02439V8.7561H87.5559V8.02439H88.2876ZM87.5559 7.29268V8.02439H86.8242V7.29268H87.5559ZM87.5559 6.56098V7.29268H86.8242V6.56098H87.5559ZM87.5559 5.82927V6.56098H86.8242V5.82927H87.5559ZM87.5559 5.09756V5.82927H86.8242V5.09756H87.5559ZM88.2876 5.09756V5.82927H87.5559V5.09756H88.2876ZM88.2876 5.82927V6.56098H87.5559V5.82927H88.2876ZM86.8242 5.09756V5.82927H86.0925V5.09756H86.8242ZM86.8242 5.82927V6.56098H86.0925V5.82927H86.8242ZM86.8242 6.56098V7.29268H86.0925V6.56098H86.8242ZM86.8242 7.29268V8.02439H86.0925V7.29268H86.8242ZM86.0925 5.09756V5.82927H85.3608V5.09756H86.0925ZM86.0925 5.82927V6.56098H85.3608V5.82927H86.0925ZM85.3608 5.82927V6.56098H84.629V5.82927H85.3608ZM85.3608 6.56098V7.29268H84.629V6.56098H85.3608ZM84.629 6.56098V7.29268H83.8973V6.56098H84.629ZM84.629 7.29268V8.02439H83.8973V7.29268H84.629ZM85.3608 7.29268V8.02439H84.629V7.29268H85.3608ZM86.0925 7.29268V8.02439H85.3608V7.29268H86.0925ZM86.0925 6.56098V7.29268H85.3608V6.56098H86.0925ZM84.629 8.02439V8.7561H83.8973V8.02439H84.629ZM85.3608 5.09756V5.82927H84.629V5.09756H85.3608ZM84.629 5.82927V6.56098H83.8973V5.82927H84.629ZM87.5559 8.02439V8.7561H86.8242V8.02439H87.5559ZM88.2876 8.7561V9.48781H87.5559V8.7561H88.2876ZM94.1527 14.6098V13.878H94.8844V14.6098H94.1527ZM93.421 14.6098V13.878H94.1527V14.6098H93.421ZM92.6893 14.6098V13.878H93.421V14.6098H92.6893ZM91.9576 14.6098V13.878H92.6893V14.6098H91.9576ZM91.2258 14.6098V13.878H91.9576V14.6098H91.2258ZM91.2258 15.3415V14.6098H91.9576V15.3415H91.2258ZM91.2258 16.0732V15.3415H91.9576V16.0732H91.2258ZM91.9576 16.0732V15.3415H92.6893V16.0732H91.9576ZM92.6893 16.0732V15.3415H93.421V16.0732H92.6893ZM93.421 16.0732V15.3415H94.1527V16.0732H93.421ZM93.421 15.3415V14.6098H94.1527V15.3415H93.421ZM94.1527 15.3415V14.6098H94.8844V15.3415H94.1527ZM92.6893 15.3415V14.6098H93.421V15.3415H92.6893ZM91.9576 15.3415V14.6098H92.6893V15.3415H91.9576ZM94.1527 16.0732V15.3415H94.8844V16.0732H94.1527ZM94.8844 16.0732V15.3415H95.6161V16.0732H94.8844ZM94.8844 16.8049V16.0732H95.6161V16.8049H94.8844ZM94.1527 16.8049V16.0732H94.8844V16.8049H94.1527ZM93.421 16.8049V16.0732H94.1527V16.8049H93.421ZM92.6893 16.8049V16.0732H93.421V16.8049H92.6893ZM91.9576 16.8049V16.0732H92.6893V16.8049H91.9576ZM91.9576 17.5366V16.8049H92.6893V17.5366H91.9576ZM92.6893 17.5366V16.8049H93.421V17.5366H92.6893ZM93.421 17.5366V16.8049H94.1527V17.5366H93.421ZM94.1527 17.5366V16.8049H94.8844V17.5366H94.1527ZM94.8844 17.5366V16.8049H95.6161V17.5366H94.8844ZM93.421 18.2683V17.5366H94.1527V18.2683H93.421ZM92.6893 18.2683V17.5366H93.421V18.2683H92.6893ZM94.1527 18.2683V17.5366H94.8844V18.2683H94.1527ZM94.1527 19V18.2683H94.8844V19H94.1527ZM94.8844 19V18.2683H95.6161V19H94.8844ZM94.8844 18.2683V17.5366H95.6161V18.2683H94.8844ZM95.6161 18.2683V17.5366H96.3478V18.2683H95.6161ZM95.6161 19V18.2683H96.3478V19H95.6161ZM95.6161 17.5366V16.8049H96.3478V17.5366H95.6161ZM96.3478 17.5366V16.8049H97.0795V17.5366H96.3478ZM96.3478 16.8049V16.0732H97.0795V16.8049H96.3478ZM95.6161 16.8049V16.0732H96.3478V16.8049H95.6161ZM97.0795 16.8049V16.0732H97.8112V16.8049H97.0795ZM97.0795 17.5366V16.8049H97.8112V17.5366H97.0795ZM97.0795 18.2683V17.5366H97.8112V18.2683H97.0795ZM97.0795 19V18.2683H97.8112V19H97.0795ZM96.3478 19V18.2683H97.0795V19H96.3478ZM96.3478 18.2683V17.5366H97.0795V18.2683H96.3478ZM97.8112 19V18.2683H98.5429V19H97.8112ZM99.2746 18.2683V17.5366H100.006V18.2683H99.2746ZM99.2746 17.5366V16.8049H100.006V17.5366H99.2746ZM99.2746 16.8049V16.0732H100.006V16.8049H99.2746ZM98.5429 16.8049V16.0732H99.2746V16.8049H98.5429ZM97.8112 16.8049V16.0732H98.5429V16.8049H97.8112ZM97.8112 17.5366V16.8049H98.5429V17.5366H97.8112ZM97.8112 18.2683V17.5366H98.5429V18.2683H97.8112ZM98.5429 18.2683V17.5366H99.2746V18.2683H98.5429ZM98.5429 17.5366V16.8049H99.2746V17.5366H98.5429ZM100.006 17.5366V16.8049H100.738V17.5366H100.006ZM100.006 18.2683V17.5366H100.738V18.2683H100.006ZM100.738 18.2683V17.5366H101.47V18.2683H100.738ZM100.738 17.5366V16.8049H101.47V17.5366H100.738ZM101.47 17.5366V16.8049H102.201V17.5366H101.47ZM101.47 16.8049V16.0732H102.201V16.8049H101.47ZM101.47 16.0732V15.3415H102.201V16.0732H101.47ZM100.738 16.0732V15.3415H101.47V16.0732H100.738ZM100.738 16.8049V16.0732H101.47V16.8049H100.738ZM100.006 16.8049V16.0732H100.738V16.8049H100.006ZM100.006 16.0732V15.3415H100.738V16.0732H100.006ZM99.2746 16.0732V15.3415H100.006V16.0732H99.2746ZM102.201 16.0732V15.3415H102.933V16.0732H102.201ZM102.201 15.3415V14.6098H102.933V15.3415H102.201ZM102.201 14.6098V13.878H102.933V14.6098H102.201ZM102.201 13.878V13.1463H102.933V13.878H102.201ZM102.201 13.1463V12.4146H102.933V13.1463H102.201ZM102.201 12.4146V11.6829H102.933V12.4146H102.201ZM102.201 11.6829V10.9512H102.933V11.6829H102.201ZM102.201 10.9512V10.2195H102.933V10.9512H102.201ZM102.201 10.2195V9.48781H102.933V10.2195H102.201ZM102.201 9.48781V8.7561H102.933V9.48781H102.201ZM101.47 9.48781V8.7561H102.201V9.48781H101.47ZM101.47 8.7561V8.02439H102.201V8.7561H101.47ZM102.201 8.7561V8.02439H102.933V8.7561H102.201ZM100.738 8.7561V8.02439H101.47V8.7561H100.738ZM100.006 8.7561V8.02439H100.738V8.7561H100.006ZM99.2746 8.7561V8.02439H100.006V8.7561H99.2746ZM98.5429 8.7561V8.02439H99.2746V8.7561H98.5429ZM99.2746 9.48781V8.7561H100.006V9.48781H99.2746ZM99.2746 10.2195V9.48781H100.006V10.2195H99.2746ZM99.2746 10.9512V10.2195H100.006V10.9512H99.2746ZM99.2746 11.6829V10.9512H100.006V11.6829H99.2746ZM99.2746 12.4146V11.6829H100.006V12.4146H99.2746ZM99.2746 13.1463V12.4146H100.006V13.1463H99.2746ZM99.2746 13.878V13.1463H100.006V13.878H99.2746ZM99.2746 14.6098V13.878H100.006V14.6098H99.2746ZM99.2746 15.3415V14.6098H100.006V15.3415H99.2746ZM100.006 15.3415V14.6098H100.738V15.3415H100.006ZM100.738 15.3415V14.6098H101.47V15.3415H100.738ZM101.47 15.3415V14.6098H102.201V15.3415H101.47ZM101.47 14.6098V13.878H102.201V14.6098H101.47ZM101.47 13.878V13.1463H102.201V13.878H101.47ZM101.47 13.1463V12.4146H102.201V13.1463H101.47ZM101.47 12.4146V11.6829H102.201V12.4146H101.47ZM101.47 11.6829V10.9512H102.201V11.6829H101.47ZM101.47 10.9512V10.2195H102.201V10.9512H101.47ZM101.47 10.2195V9.48781H102.201V10.2195H101.47ZM100.738 9.48781V8.7561H101.47V9.48781H100.738ZM100.006 9.48781V8.7561H100.738V9.48781H100.006ZM100.006 10.2195V9.48781H100.738V10.2195H100.006ZM100.006 10.9512V10.2195H100.738V10.9512H100.006ZM100.006 11.6829V10.9512H100.738V11.6829H100.006ZM100.006 12.4146V11.6829H100.738V12.4146H100.006ZM100.738 12.4146V11.6829H101.47V12.4146H100.738ZM100.738 13.1463V12.4146H101.47V13.1463H100.738ZM100.738 13.878V13.1463H101.47V13.878H100.738ZM100.738 14.6098V13.878H101.47V14.6098H100.738ZM100.006 14.6098V13.878H100.738V14.6098H100.006ZM100.006 13.878V13.1463H100.738V13.878H100.006ZM100.006 13.1463V12.4146H100.738V13.1463H100.006ZM100.738 10.9512V10.2195H101.47V10.9512H100.738ZM100.738 10.2195V9.48781H101.47V10.2195H100.738ZM100.738 11.6829V10.9512H101.47V11.6829H100.738ZM94.1527 9.48781V8.7561H94.8844V9.48781H94.1527ZM93.421 9.48781V8.7561H94.1527V9.48781H93.421ZM92.6893 9.48781V8.7561H93.421V9.48781H92.6893ZM91.9576 9.48781V8.7561H92.6893V9.48781H91.9576ZM91.2258 9.48781V8.7561H91.9576V9.48781H91.2258ZM91.2258 8.7561V8.02439H91.9576V8.7561H91.2258ZM91.9576 8.7561V8.02439H92.6893V8.7561H91.9576ZM92.6893 8.7561V8.02439H93.421V8.7561H92.6893ZM93.421 8.7561V8.02439H94.1527V8.7561H93.421ZM94.1527 8.7561V8.02439H94.8844V8.7561H94.1527ZM94.8844 8.7561V8.02439H95.6161V8.7561H94.8844ZM94.8844 8.02439V7.29268H95.6161V8.02439H94.8844ZM94.1527 8.02439V7.29268H94.8844V8.02439H94.1527ZM93.421 8.02439V7.29268H94.1527V8.02439H93.421ZM92.6893 8.02439V7.29268H93.421V8.02439H92.6893ZM92.6893 7.29268V6.56098H93.421V7.29268H92.6893ZM91.9576 7.29268V6.56098H92.6893V7.29268H91.9576ZM91.9576 8.02439V7.29268H92.6893V8.02439H91.9576ZM92.6893 6.56098V5.82927H93.421V6.56098H92.6893ZM93.421 6.56098V5.82927H94.1527V6.56098H93.421ZM93.421 7.29268V6.56098H94.1527V7.29268H93.421ZM94.1527 7.29268V6.56098H94.8844V7.29268H94.1527ZM94.1527 6.56098V5.82927H94.8844V6.56098H94.1527ZM94.1527 5.82927V5.09756H94.8844V5.82927H94.1527ZM94.8844 5.82927V5.09756H95.6161V5.82927H94.8844ZM95.6161 5.82927V5.09756H96.3478V5.82927H95.6161ZM96.3478 5.82927V5.09756H97.0795V5.82927H96.3478ZM97.0795 5.82927V5.09756H97.8112V5.82927H97.0795ZM97.8112 5.82927V5.09756H98.5429V5.82927H97.8112ZM98.5429 5.82927V5.09756H99.2746V5.82927H98.5429ZM99.2746 5.82927V5.09756H100.006V5.82927H99.2746ZM98.5429 6.56098V5.82927H99.2746V6.56098H98.5429ZM97.8112 6.56098V5.82927H98.5429V6.56098H97.8112ZM97.0795 6.56098V5.82927H97.8112V6.56098H97.0795ZM96.3478 6.56098V5.82927H97.0795V6.56098H96.3478ZM95.6161 6.56098V5.82927H96.3478V6.56098H95.6161ZM94.8844 6.56098V5.82927H95.6161V6.56098H94.8844ZM94.8844 7.29268V6.56098H95.6161V7.29268H94.8844ZM95.6161 7.29268V6.56098H96.3478V7.29268H95.6161ZM96.3478 7.29268V6.56098H97.0795V7.29268H96.3478ZM97.0795 7.29268V6.56098H97.8112V7.29268H97.0795ZM97.8112 7.29268V6.56098H98.5429V7.29268H97.8112ZM98.5429 7.29268V6.56098H99.2746V7.29268H98.5429ZM99.2746 6.56098V5.82927H100.006V6.56098H99.2746ZM100.006 6.56098V5.82927H100.738V6.56098H100.006ZM100.738 6.56098V5.82927H101.47V6.56098H100.738ZM100.738 7.29268V6.56098H101.47V7.29268H100.738ZM101.47 7.29268V6.56098H102.201V7.29268H101.47ZM101.47 8.02439V7.29268H102.201V8.02439H101.47ZM100.738 8.02439V7.29268H101.47V8.02439H100.738ZM100.006 8.02439V7.29268H100.738V8.02439H100.006ZM99.2746 8.02439V7.29268H100.006V8.02439H99.2746ZM98.5429 8.02439V7.29268H99.2746V8.02439H98.5429ZM97.8112 8.02439V7.29268H98.5429V8.02439H97.8112ZM97.0795 8.02439V7.29268H97.8112V8.02439H97.0795ZM96.3478 8.02439V7.29268H97.0795V8.02439H96.3478ZM95.6161 8.02439V7.29268H96.3478V8.02439H95.6161ZM99.2746 7.29268V6.56098H100.006V7.29268H99.2746ZM100.006 7.29268V6.56098H100.738V7.29268H100.006ZM91.9576 13.878V13.1463H92.6893V13.878H91.9576ZM92.6893 13.878V13.1463H93.421V13.878H92.6893ZM93.421 13.878V13.1463H94.1527V13.878H93.421ZM94.1527 13.878V13.1463H94.8844V13.878H94.1527ZM92.6893 13.1463V12.4146H93.421V13.1463H92.6893ZM93.421 13.1463V12.4146H94.1527V13.1463H93.421ZM94.8844 13.1463V12.4146H95.6161V13.1463H94.8844ZM95.6161 13.1463V12.4146H96.3478V13.1463H95.6161ZM96.3478 13.1463V12.4146H97.0795V13.1463H96.3478ZM97.0795 13.1463V12.4146H97.8112V13.1463H97.0795ZM97.8112 13.1463V12.4146H98.5429V13.1463H97.8112ZM98.5429 13.1463V12.4146H99.2746V13.1463H98.5429ZM94.1527 13.1463V12.4146H94.8844V13.1463H94.1527ZM91.9576 13.1463V12.4146H92.6893V13.1463H91.9576ZM92.6893 12.4146V11.6829H93.421V12.4146H92.6893ZM93.421 12.4146V11.6829H94.1527V12.4146H93.421ZM94.1527 12.4146V11.6829H94.8844V12.4146H94.1527ZM94.8844 12.4146V11.6829H95.6161V12.4146H94.8844ZM95.6161 12.4146V11.6829H96.3478V12.4146H95.6161ZM96.3478 12.4146V11.6829H97.0795V12.4146H96.3478ZM97.0795 12.4146V11.6829H97.8112V12.4146H97.0795ZM97.8112 12.4146V11.6829H98.5429V12.4146H97.8112ZM98.5429 12.4146V11.6829H99.2746V12.4146H98.5429ZM98.5429 11.6829V10.9512H99.2746V11.6829H98.5429ZM97.8112 11.6829V10.9512H98.5429V11.6829H97.8112ZM97.0795 11.6829V10.9512H97.8112V11.6829H97.0795ZM95.6161 11.6829V10.9512H96.3478V11.6829H95.6161ZM94.8844 11.6829V10.9512H95.6161V11.6829H94.8844ZM94.1527 11.6829V10.9512H94.8844V11.6829H94.1527ZM96.3478 11.6829V10.9512H97.0795V11.6829H96.3478ZM102.933 16.0732V16.8049H102.201V16.0732H102.933ZM102.933 16.8049V17.5366H102.201V16.8049H102.933ZM102.933 17.5366V18.2683H102.201V17.5366H102.933ZM102.933 18.2683V19H102.201V18.2683H102.933ZM102.201 18.2683V19H101.47V18.2683H102.201ZM102.201 17.5366V18.2683H101.47V17.5366H102.201ZM101.47 18.2683V19H100.738V18.2683H101.47ZM100.738 18.2683V19H100.006V18.2683H100.738ZM100.006 18.2683V19H99.2746V18.2683H100.006ZM99.2746 15.3415V16.0732H98.5429V15.3415H99.2746ZM94.1527 18.2683V19H93.421V18.2683H94.1527ZM95.6161 13.1463V13.878H94.8844V13.1463H95.6161Z" fill="#121212"/>
</svg>
